<svg width="24" height="25" viewBox="0 0 24 25" fill="none" xmlns="http://www.w3.org/2000/svg">
<path d="M4.9999 3.50008L4.99989 21.5001C5.00047 21.6823 5.05073 21.861 5.14527 22.0168C5.23982 22.1726 5.37506 22.2996 5.53645 22.3843C5.69783 22.4689 5.87925 22.508 6.06118 22.4972C6.2431 22.4864 6.41864 22.4262 6.56889 22.3231L19.5689 13.3231C20.1079 12.9501 20.1079 12.0521 19.5689 11.6781L6.5689 2.67808C6.41895 2.57391 6.24333 2.51282 6.0611 2.50145C5.87887 2.49008 5.69702 2.52887 5.53529 2.6136C5.37356 2.69833 5.23814 2.82576 5.14375 2.98205C5.04936 3.13834 4.99961 3.3175 4.9999 3.50008Z" fill="#0866CA"/>
</svg>
