<svg width="64" height="65" viewBox="0 0 64 65" fill="none" xmlns="http://www.w3.org/2000/svg">
<g filter="url(#filter0_d_15_10653)">
<g clip-path="url(#clip0_15_10653)">
<rect x="8" y="4.5" width="48" height="48" rx="24" fill="white"/>
<path d="M22.1018 14.6127L26.3034 14.6065C26.6057 14.6068 26.9799 14.5764 27.2726 14.6509C27.9231 14.8163 28.5504 15.5535 28.3384 16.2532L28.3266 16.2902C28.2515 16.5335 28.1423 16.7695 28.0467 17.0056L26.837 20.2677C26.8199 20.3116 26.7919 20.3407 26.7605 20.3749L22.8345 20.3862L18.1547 20.3854C17.5815 20.3829 17.0761 20.3622 16.736 19.8217L16.7156 19.7883C16.0817 18.7647 17.143 17.9605 17.7592 17.2856C18.8412 16.1005 19.8875 14.949 21.5449 14.6614L22.1018 14.6127Z" fill="#A8CEF9"/>
<path d="M32.6943 14.6109C33.0119 14.5889 33.3414 14.6058 33.6602 14.6061L37.0308 14.6091C39.4445 14.6085 40.2623 15.4496 41.9241 17.1462C42.6222 17.859 43.7515 18.704 43.1094 19.8159L43.058 19.9041C42.7917 20.3148 42.3761 20.4108 41.9223 20.4183L32.7489 20.3881L31.4411 16.9069C31.011 15.6891 31.3322 14.8053 32.6943 14.6109Z" fill="#A8CEF9"/>
<path d="M36.9187 26.9648C38.4085 26.651 39.8702 26.6909 41.3266 27.1937C43.8109 28.1026 45.7684 30.1911 46.4068 32.7665L46.5808 33.6222C46.6486 33.9447 46.6344 34.3066 46.6348 34.6359C46.6387 38.3188 44.2135 41.603 40.5064 42.2923C36.0808 43.1153 32.1116 40.4369 31.2563 36.0129L31.201 35.6685C30.8071 31.9158 32.7742 28.2601 36.4666 27.1025C36.6034 27.0597 36.7549 27.0341 36.8862 26.9789L36.9187 26.9648ZM41.0892 31.1072C40.4957 31.2251 40.285 31.585 39.913 32.0149L37.8819 34.4458C37.6667 34.6961 37.4382 35.0259 37.1782 35.2282C36.673 34.7387 36.314 34.2179 35.5302 34.2282C34.6762 34.2394 33.931 34.9781 34.1071 35.8606L34.1127 35.8922C34.1911 36.3228 34.5808 36.6173 34.8832 36.898L35.6911 37.6337C36.1502 38.0168 36.781 38.6249 37.4199 38.5726L37.5502 38.5593C38.0341 38.5091 38.3979 38.2107 38.6922 37.8452L41.8249 33.8466C42.0148 33.6239 42.2426 33.4117 42.3994 33.1644C42.9687 32.2664 42.4322 31.2008 41.3896 31.1064L41.0892 31.1072Z" fill="#0866CA"/>
<path d="M31.201 35.6687C30.6948 35.8152 30.1495 35.7475 29.6291 35.7478L24.1124 35.7481C23.3137 35.7478 22.4956 35.7958 21.7075 35.6451C20.4921 35.4127 19.4056 34.4111 19.0599 33.2247C18.9184 32.7395 18.8971 32.2731 18.8742 31.7722L18.7225 27.2845L18.3633 21.35L26.3515 21.3193C26.3572 21.4416 26.2678 21.6474 26.2282 21.7668L25.8937 22.6795C25.5485 23.544 24.9217 24.6124 26.0593 25.1653L26.0908 25.1803C26.2834 25.2753 26.533 25.3381 26.7474 25.2982L26.7763 25.2925C27.5565 25.1486 28.273 24.2152 28.7956 23.6683C29.6803 22.7423 29.8359 22.793 30.6864 23.6992L31.6557 24.6532C31.8587 24.8384 32.0562 25.0328 32.3059 25.1549C33.0931 25.5397 34.2414 24.8488 34.142 23.9868C34.1019 23.639 33.9199 23.2838 33.7861 22.9628L33.465 22.1233C33.3789 21.8818 33.3364 21.6212 33.2478 21.3846L41.7541 21.3378L41.7397 22.7185L41.5324 25.9215C41.522 26.2067 41.5431 26.5362 41.4844 26.8145L41.4766 26.8491C41.4559 26.9464 41.438 27.0185 41.3826 27.1024L41.3266 27.1939C39.8702 26.6911 38.4085 26.6512 36.9187 26.965L36.8862 26.9791C36.7549 27.0343 36.6034 27.0599 36.4666 27.1027C32.7742 28.2603 30.8071 31.916 31.201 35.6687Z" fill="#A8CEF9"/>
<path d="M36.9185 26.9656L36.9188 26.9328C36.9533 26.9275 36.9752 26.9148 37.0066 26.9083L37.0751 26.8936C37.1176 26.8777 37.172 26.8735 37.2175 26.8614L37.2846 26.8467C37.3437 26.8244 37.4112 26.8346 37.4753 26.8145L37.5692 26.8087L37.5141 26.6617L36.8965 26.8101C36.9937 26.7383 37.1586 26.7097 37.2754 26.6799C38.5046 26.3658 40.2515 26.4915 41.3824 27.103L41.3264 27.1945C39.87 26.6917 38.4083 26.6518 36.9185 26.9656Z" fill="#EBF5FF"/>
</g>
</g>
<defs>
<filter id="filter0_d_15_10653" x="0" y="0.5" width="64" height="64" filterUnits="userSpaceOnUse" color-interpolation-filters="sRGB">
<feFlood flood-opacity="0" result="BackgroundImageFix"/>
<feColorMatrix in="SourceAlpha" type="matrix" values="0 0 0 0 0 0 0 0 0 0 0 0 0 0 0 0 0 0 127 0" result="hardAlpha"/>
<feOffset dy="4"/>
<feGaussianBlur stdDeviation="4"/>
<feComposite in2="hardAlpha" operator="out"/>
<feColorMatrix type="matrix" values="0 0 0 0 0 0 0 0 0 0 0 0 0 0 0 0 0 0 0.12 0"/>
<feBlend mode="normal" in2="BackgroundImageFix" result="effect1_dropShadow_15_10653"/>
<feBlend mode="normal" in="SourceGraphic" in2="effect1_dropShadow_15_10653" result="shape"/>
</filter>
<clipPath id="clip0_15_10653">
<rect x="8" y="4.5" width="48" height="48" rx="24" fill="white"/>
</clipPath>
</defs>
</svg>
