<svg width="26" height="19" viewBox="0 0 26 19" fill="none" xmlns="http://www.w3.org/2000/svg">
<path d="M25.1697 6.42832C25.1697 6.42832 24.9116 5.85125 24.5926 5.85125H21.6154C21.2964 5.85125 21.0371 6.10932 21.0371 6.42832V6.98866H20.2259C20.2259 6.43549 20.2259 6.089 20.2259 6.05436C20.2259 5.85125 20.0132 5.86917 20.0132 5.86917H18.2044C18.2044 3.03638 16.7731 3.04474 16.7731 3.04474H13.5737V2.08296H16.7731V0.663574H6.16278V2.08296H9.65138V3.04474C9.65138 3.04474 7.87363 3.04474 6.43995 3.04474L4.50808 4.52148H3.01109C2.6921 4.52148 2.43404 4.78074 2.43404 5.09974V8.80471H1.47109V4.84645H0.0517578V14.7833H1.47109V10.6936H2.43404V14.5312C2.43404 14.8502 2.6921 15.1083 3.01109 15.1083H4.50808L9.20694 18.4644C9.20694 18.4644 17.699 18.4644 19.0348 18.4644C20.3705 18.4644 20.2259 17.3282 20.2259 17.3282C20.2259 17.3282 20.2259 16.6388 20.2259 15.6017H21.0371V16.8765C21.0371 17.1955 21.2964 17.4548 21.6154 17.4548H24.5926C24.9116 17.4548 25.1697 16.8765 25.1697 16.8765L26 14.4583V8.84652L25.1697 6.42832V6.42832ZM6.59408 12.0342C6.95966 12.0342 7.33241 11.9625 7.57375 11.8514L7.6968 12.309C7.47698 12.4069 7.03493 12.5192 6.46265 12.5192C5.1604 12.5192 4.17476 11.7259 4.17476 10.2802C4.17476 8.89909 5.1604 7.96957 6.60124 7.96957C7.17352 7.96957 7.54627 8.08187 7.70398 8.15953L7.55941 8.6243C7.33241 8.51916 7.00864 8.44031 6.62155 8.44031C5.53316 8.44031 4.80796 9.1022 4.80796 10.2611C4.80796 11.3412 5.46387 12.0342 6.59408 12.0342V12.0342ZM11.8963 12.4464H11.2965V10.3782H9.04923V12.4464H8.44232V8.03528H9.04923V9.88717H11.2965V8.03528H11.8963V12.4464ZM15.5569 12.4464H12.9369V8.03528H15.453V8.50721H13.5438V9.90747H15.343V10.3782H13.5438V11.9756H15.5569V12.4464V12.4464ZM18.4732 12.0342C18.8388 12.0342 19.2104 11.9625 19.4517 11.8514L19.576 12.309C19.3549 12.4069 18.9141 12.5192 18.3418 12.5192C17.0384 12.5192 16.0527 11.7259 16.0527 10.2802C16.0527 8.89909 17.0384 7.96957 18.4804 7.96957C19.0527 7.96957 19.4242 8.08187 19.5831 8.15953L19.4386 8.6243C19.2104 8.51916 18.8866 8.44031 18.5007 8.44031C17.4111 8.44031 16.6871 9.1022 16.6871 10.2611C16.6871 11.3412 17.3418 12.0342 18.4732 12.0342V12.0342ZM22.8985 12.4464L21.3681 10.2802L20.9272 10.7653V12.4464H20.3203V8.03528H20.9272V10.162H20.9475C21.0718 9.9923 21.1948 9.83459 21.3131 9.69122L22.7324 8.03528H23.4708L21.7958 9.90747L23.6094 12.4464H22.8985V12.4464Z" fill="#23262F"/>
</svg>
