<svg width="24" height="16" viewBox="0 0 24 16" fill="none" xmlns="http://www.w3.org/2000/svg">
<path d="M23.232 5.18228C23.232 5.18228 22.9933 4.66363 22.6983 4.66363H19.9446C19.6495 4.66363 19.4097 4.89557 19.4097 5.18228V5.68483H18.6594C18.6594 5.18873 18.6594 4.87624 18.6594 4.8451C18.6594 4.66362 18.4627 4.67973 18.4627 4.67973H16.7897C16.7897 2.13369 15.4659 2.14121 15.4659 2.14121H12.5067V1.27571H15.4659V0H5.6522V1.27571H8.87886V2.14121C8.87886 2.14121 7.23458 2.14121 5.90855 2.14121L4.12285 3.46846H2.73714C2.4421 3.46846 2.20342 3.70148 2.20342 3.98819V7.31812H1.31277V3.76054H0V12.6915H1.31277V9.01477H2.20342V12.465C2.20342 12.7506 2.4421 12.9836 2.73714 12.9836H4.12285L8.46669 16C8.46669 16 16.3223 16 17.5577 16C18.792 16 18.6594 14.9788 18.6594 14.9788C18.6594 14.9788 18.6594 14.3592 18.6594 13.4271H19.4097V14.5729C19.4097 14.8596 19.6495 15.0915 19.9446 15.0915H22.6983C22.9933 15.0915 23.232 14.5729 23.232 14.5729L24 12.3995V7.3557L23.232 5.18228V5.18228ZM11.4182 12.5616L11.2878 8.37799L8.69763 8.77101L11.8812 3.50068L11.826 6.78336L13.8691 6.73719L11.4182 12.5616V12.5616Z" fill="#23262F"/>
</svg>
