<svg width="20" height="20" viewBox="0 0 20 20" fill="none" xmlns="http://www.w3.org/2000/svg">
<g clip-path="url(#clip0_15_2541)">
<path d="M9.97839 15.9383L9.89197 16.0247L9.79691 15.9383C5.69198 12.2136 2.97839 9.75062 2.97839 7.25309C2.97839 5.52469 4.27469 4.2284 6.00309 4.2284C7.33395 4.2284 8.63025 5.09259 9.08827 6.2679H10.6957C11.1537 5.09259 12.45 4.2284 13.7809 4.2284C15.5093 4.2284 16.8056 5.52469 16.8056 7.25309C16.8056 9.75062 14.092 12.2136 9.97839 15.9383ZM13.7809 2.5C12.2772 2.5 10.8339 3.2 9.89197 4.29753C8.95 3.2 7.50679 2.5 6.00309 2.5C3.34136 2.5 1.25 4.58272 1.25 7.25309C1.25 10.5111 4.18827 13.1815 8.63889 17.2173L9.89197 18.358L11.1451 17.2173C15.5957 13.1815 18.5339 10.5111 18.5339 7.25309C18.5339 4.58272 16.4426 2.5 13.7809 2.5Z" fill="#0866CA"/>
</g>
<defs>
<clipPath id="clip0_15_2541">
<rect width="20" height="20" fill="white" transform="matrix(-1 0 0 1 20 0)"/>
</clipPath>
</defs>
</svg>
