<svg width="22" height="16" viewBox="0 0 22 16" fill="none" xmlns="http://www.w3.org/2000/svg">
<g clip-path="url(#clip0_53_38738)">
<path d="M5.21205 15.8386V7.68127L2.66904 5.36686L0.388672 4.08252V14.399C0.388672 15.1955 1.03738 15.8386 1.83572 15.8386H5.21205Z" fill="#4285F4"/>
<path d="M16.7891 15.8385H20.1654C20.9661 15.8385 21.6124 15.1931 21.6124 14.3989V4.08252L19.0296 5.55357L16.7891 7.68119V15.8385Z" fill="#34A853"/>
<path d="M5.21322 7.68121L4.86719 4.49392L5.21322 1.44336L11.0012 5.76192L16.7893 1.44336L17.1763 4.32922L16.7893 7.68121L11.0012 11.9998L5.21322 7.68121Z" fill="#EA4335"/>
<path d="M16.7891 1.44356V7.68142L21.6124 4.08267V2.1633C21.6124 0.38314 19.5697 -0.631679 18.1397 0.435922L16.7891 1.44356Z" fill="#FBBC04"/>
<path d="M0.388672 4.08271L2.60703 5.73792L5.21205 7.68146V1.4436L3.86142 0.435959C2.42888 -0.631723 0.388672 0.383177 0.388672 2.16325V4.08271Z" fill="#C5221F"/>
</g>
<defs>
<clipPath id="clip0_53_38738">
<rect width="21.2228" height="16" fill="white" transform="translate(0.388672)"/>
</clipPath>
</defs>
</svg>
