<svg width="105" height="20" viewBox="0 0 105 20" fill="none" xmlns="http://www.w3.org/2000/svg">
<path d="M10 0C4.5 0 0 4.5 0 10C0 15.5 4.5 20 10 20C15.5 20 20 15.5 20 10C20 4.5 15.5 0 10 0ZM15.0833 10.8333C15.25 12.3333 15.8333 13.75 16.6667 15C16.3333 15.4167 15.9167 15.8333 15.5 16.25C14.25 14.6667 13.5 12.8333 13.3333 10.8333H10.8333V18.25C10.5833 18.25 10.25 18.3333 10 18.3333C9.75 18.3333 9.41667 18.3333 9.16667 18.25V10.8333H6.66667C6.5 12.8333 5.75 14.6667 4.5 16.25C4.08333 15.8333 3.66667 15.4167 3.33333 15C4.25 13.75 4.83333 12.3333 4.91667 10.8333H1.75C1.66667 10.5833 1.66667 10.25 1.66667 10C1.66667 9.75 1.66667 9.41667 1.75 9.16667H5C4.83333 7.66667 4.25 6.25 3.33333 5C3.66667 4.58333 4.08333 4.16667 4.5 3.75C5.75 5.33333 6.5 7.16667 6.66667 9.16667H9.16667V1.75C9.41667 1.66667 9.75 1.66667 10 1.66667C10.25 1.66667 10.5833 1.66667 10.8333 1.75V9.16667H13.3333C13.5 7.16667 14.25 5.33333 15.5 3.75C15.9167 4.16667 16.3333 4.58333 16.6667 5C15.75 6.25 15.1667 7.66667 15.0833 9.16667H18.3333C18.3333 9.41667 18.4167 9.75 18.4167 10C18.4167 10.25 18.4167 10.5833 18.3333 10.8333H15.0833Z" fill="#FCFCFD"/>
<path d="M33.16 4.53V6.225H30.37V15H28.27V6.225H25.48V4.53H33.16ZM38.0822 15.135C37.2822 15.135 36.5622 14.96 35.9222 14.61C35.2822 14.25 34.7772 13.745 34.4072 13.095C34.0472 12.445 33.8672 11.695 33.8672 10.845C33.8672 9.995 34.0522 9.245 34.4222 8.595C34.8022 7.945 35.3172 7.445 35.9672 7.095C36.6172 6.735 37.3422 6.555 38.1422 6.555C38.9422 6.555 39.6672 6.735 40.3172 7.095C40.9672 7.445 41.4772 7.945 41.8472 8.595C42.2272 9.245 42.4172 9.995 42.4172 10.845C42.4172 11.695 42.2222 12.445 41.8322 13.095C41.4522 13.745 40.9322 14.25 40.2722 14.61C39.6222 14.96 38.8922 15.135 38.0822 15.135ZM38.0822 13.305C38.4622 13.305 38.8172 13.215 39.1472 13.035C39.4872 12.845 39.7572 12.565 39.9572 12.195C40.1572 11.825 40.2572 11.375 40.2572 10.845C40.2572 10.055 40.0472 9.45 39.6272 9.03C39.2172 8.6 38.7122 8.385 38.1122 8.385C37.5122 8.385 37.0072 8.6 36.5972 9.03C36.1972 9.45 35.9972 10.055 35.9972 10.845C35.9972 11.635 36.1922 12.245 36.5822 12.675C36.9822 13.095 37.4822 13.305 38.0822 13.305ZM48.5777 15L45.7577 11.46V15H43.6577V3.9H45.7577V10.215L48.5477 6.69H51.2777L47.6177 10.86L51.3077 15H48.5777ZM60.0674 6.69L54.9224 18.93H52.6874L54.4874 14.79L51.1574 6.69H53.5124L55.6574 12.495L57.8324 6.69H60.0674ZM64.5895 15.135C63.7895 15.135 63.0695 14.96 62.4295 14.61C61.7895 14.25 61.2845 13.745 60.9145 13.095C60.5545 12.445 60.3745 11.695 60.3745 10.845C60.3745 9.995 60.5595 9.245 60.9295 8.595C61.3095 7.945 61.8245 7.445 62.4745 7.095C63.1245 6.735 63.8495 6.555 64.6495 6.555C65.4495 6.555 66.1745 6.735 66.8245 7.095C67.4745 7.445 67.9845 7.945 68.3545 8.595C68.7345 9.245 68.9245 9.995 68.9245 10.845C68.9245 11.695 68.7295 12.445 68.3395 13.095C67.9595 13.745 67.4395 14.25 66.7795 14.61C66.1295 14.96 65.3995 15.135 64.5895 15.135ZM64.5895 13.305C64.9695 13.305 65.3245 13.215 65.6545 13.035C65.9945 12.845 66.2645 12.565 66.4645 12.195C66.6645 11.825 66.7645 11.375 66.7645 10.845C66.7645 10.055 66.5545 9.45 66.1345 9.03C65.7245 8.6 65.2195 8.385 64.6195 8.385C64.0195 8.385 63.5145 8.6 63.1045 9.03C62.7045 9.45 62.5045 10.055 62.5045 10.845C62.5045 11.635 62.6995 12.245 63.0895 12.675C63.4895 13.095 63.9895 13.305 64.5895 13.305ZM69.6549 9.75C69.6549 8.72 69.8849 7.8 70.3449 6.99C70.8149 6.17 71.4499 5.535 72.2499 5.085C73.0599 4.625 73.9649 4.395 74.9649 4.395C76.1349 4.395 77.1599 4.695 78.0399 5.295C78.9199 5.895 79.5349 6.725 79.8849 7.785H77.4699C77.2299 7.285 76.8899 6.91 76.4499 6.66C76.0199 6.41 75.5199 6.285 74.9499 6.285C74.3399 6.285 73.7949 6.43 73.3149 6.72C72.8449 7 72.4749 7.4 72.2049 7.92C71.9449 8.44 71.8149 9.05 71.8149 9.75C71.8149 10.44 71.9449 11.05 72.2049 11.58C72.4749 12.1 72.8449 12.505 73.3149 12.795C73.7949 13.075 74.3399 13.215 74.9499 13.215C75.5199 13.215 76.0199 13.09 76.4499 12.84C76.8899 12.58 77.2299 12.2 77.4699 11.7H79.8849C79.5349 12.77 78.9199 13.605 78.0399 14.205C77.1699 14.795 76.1449 15.09 74.9649 15.09C73.9649 15.09 73.0599 14.865 72.2499 14.415C71.4499 13.955 70.8149 13.32 70.3449 12.51C69.8849 11.7 69.6549 10.78 69.6549 9.75ZM80.8386 10.815C80.8386 9.975 81.0036 9.23 81.3336 8.58C81.6736 7.93 82.1286 7.43 82.6986 7.08C83.2786 6.73 83.9236 6.555 84.6336 6.555C85.2536 6.555 85.7936 6.68 86.2536 6.93C86.7236 7.18 87.0986 7.495 87.3786 7.875V6.69H89.4936V15H87.3786V13.785C87.1086 14.175 86.7336 14.5 86.2536 14.76C85.7836 15.01 85.2386 15.135 84.6186 15.135C83.9186 15.135 83.2786 14.955 82.6986 14.595C82.1286 14.235 81.6736 13.73 81.3336 13.08C81.0036 12.42 80.8386 11.665 80.8386 10.815ZM87.3786 10.845C87.3786 10.335 87.2786 9.9 87.0786 9.54C86.8786 9.17 86.6086 8.89 86.2686 8.7C85.9286 8.5 85.5636 8.4 85.1736 8.4C84.7836 8.4 84.4236 8.495 84.0936 8.685C83.7636 8.875 83.4936 9.155 83.2836 9.525C83.0836 9.885 82.9836 10.315 82.9836 10.815C82.9836 11.315 83.0836 11.755 83.2836 12.135C83.4936 12.505 83.7636 12.79 84.0936 12.99C84.4336 13.19 84.7936 13.29 85.1736 13.29C85.5636 13.29 85.9286 13.195 86.2686 13.005C86.6086 12.805 86.8786 12.525 87.0786 12.165C87.2786 11.795 87.3786 11.355 87.3786 10.845ZM93.3446 7.98C93.6146 7.54 93.9646 7.195 94.3946 6.945C94.8346 6.695 95.3346 6.57 95.8946 6.57V8.775H95.3396C94.6796 8.775 94.1796 8.93 93.8396 9.24C93.5096 9.55 93.3446 10.09 93.3446 10.86V15H91.2446V6.69H93.3446V7.98ZM99.154 13.23H103.864V15H96.724V13.38L101.404 6.3H96.724V4.53H103.864V6.15L99.154 13.23Z" fill="#F4F5F6"/>
</svg>
