<svg width="26" height="17" viewBox="0 0 26 17" fill="none" xmlns="http://www.w3.org/2000/svg">
<path d="M25.7984 5.10714C22.2889 1.81319 17.7446 0 13.0006 0C8.25656 0 3.70993 1.81319 0.201559 5.10714C0.081285 5.22069 0.00752975 5.37988 0.000721778 5.54844C-0.00722086 5.717 0.0506646 5.88205 0.160727 6.0073L8.53224 15.497C8.76144 15.758 9.15068 15.7768 9.40257 15.5403C10.0119 14.9679 10.7323 14.5559 11.5085 14.3241L11.9362 15.0229C11.816 15.2208 11.7456 15.4549 11.7456 15.7054C11.7456 16.4206 12.3073 17 13.0006 17C13.6927 17 14.2555 16.4206 14.2555 15.7054C14.2555 14.9983 13.7052 14.4248 13.0221 14.4131L12.836 14.1076C12.8905 14.1064 12.9461 14.104 13.0006 14.104C14.3338 14.104 15.6103 14.6144 16.5963 15.5403C16.7155 15.6515 16.8641 15.7054 17.0116 15.7054C17.1795 15.7054 17.3475 15.6351 17.4689 15.497L25.8393 6.0073C25.9493 5.88205 26.0072 5.717 25.9993 5.54844C25.9925 5.37988 25.9199 5.22069 25.7984 5.10714V5.10714ZM16.9515 14.1918C15.8157 13.3092 14.4337 12.8305 13.0006 12.8305C12.6942 12.8305 12.3924 12.8527 12.0951 12.896L6.75994 4.18006C6.57839 3.88273 6.19715 3.79378 5.90894 3.98107C5.62074 4.16953 5.53451 4.56283 5.71719 4.86015L10.8277 13.2109C10.1922 13.4403 9.59205 13.7693 9.04854 14.1918L1.49506 5.62921C4.70956 2.81519 8.77056 1.27357 13.0006 1.27357C17.2306 1.27357 21.2904 2.81519 24.5038 5.62921L16.9515 14.1918V14.1918Z" fill="#23262F"/>
</svg>
