<svg width="18" height="18" viewBox="0 0 18 18" fill="none" xmlns="http://www.w3.org/2000/svg">
<path d="M16.5377 0.000244141H1.46227C0.656412 0.000244141 0 0.65558 0 1.46146V16.5386C0 17.3445 0.656412 18.0009 1.46227 18.0009H16.5377C17.3436 18.0009 18 17.3445 18 16.5386V1.46146C18 0.65558 17.3436 0.000244141 16.5377 0.000244141ZM16.4458 16.4456H1.55415V1.55334H16.4458V16.4456Z" fill="#23262F"/>
<path d="M9.61922 14.5376H11.1269V13.9409H9.61922V6.36694H6.87402V6.96472H8.55767V13.9409H6.87402V14.5376H9.61922Z" fill="#23262F"/>
<path d="M9.00041 5.69169C9.52399 5.69169 9.94906 5.26661 9.94906 4.74301C9.94906 4.2183 9.52399 3.79321 9.00041 3.79321C8.47572 3.79321 8.05176 4.2183 8.05176 4.74301C8.05176 5.26661 8.47572 5.69169 9.00041 5.69169Z" fill="#23262F"/>
</svg>
