<svg width="64" height="65" viewBox="0 0 64 65" fill="none" xmlns="http://www.w3.org/2000/svg">
<g filter="url(#filter0_d_15_10620)">
<g clip-path="url(#clip0_15_10620)">
<rect x="8" y="4.5" width="48" height="48" rx="24" fill="white"/>
<path d="M35.5068 20.0071L44.8512 20.0065C46.6547 20.0106 48.2483 21.1444 48.4402 23.0283C48.4961 23.5767 48.4582 24.163 48.4584 24.715L48.4485 35.2041C48.3987 36.2818 47.8593 37.3324 46.9035 37.8741C45.8432 38.4749 44.541 38.3184 43.3714 38.3182L19.1766 38.3196C18.6279 38.3197 18.0045 38.381 17.4747 38.2369C16.1376 37.8732 15.2663 36.7014 15.1244 35.3511C15.0769 34.9 15.1121 34.4113 15.1129 33.9566L15.1124 24.3016C15.1124 23.6539 15.0661 23.0119 15.2442 22.3823C15.6215 21.0479 16.8645 20.1777 18.2011 20.0241C18.5433 19.9848 18.9032 20.0054 19.2481 20.0055L27.1477 20.0071L35.5068 20.0071Z" fill="url(#paint0_linear_15_10620)"/>
<path d="M18.5182 20.836L44.0715 20.8359C45.6821 20.8372 47.1319 20.9129 47.5533 22.8165C47.6219 23.1261 47.6005 23.4489 47.6008 23.7645L47.6079 29.5167C47.6091 29.7834 47.6647 30.0427 47.668 30.3054L47.6685 33.5784C47.6751 35.3153 47.7693 37.0757 45.682 37.5324L44.9865 37.6205L19.8502 37.6175C17.9247 37.6179 16.0065 37.4875 15.9157 35.0924L15.9141 23.5134C15.9297 21.8932 16.8752 20.9212 18.5182 20.836Z" fill="#A8CEF9"/>
<path d="M42.333 25.5463L42.3846 25.5435C44.1396 25.4832 45.6306 27.2011 45.6697 28.8826C45.7141 30.7936 44.2992 32.4096 42.3531 32.4541C41.5205 32.4465 40.7361 32.1748 40.1034 31.6235C37.7592 29.5805 39.2114 25.7379 42.333 25.5463Z" fill="#0866CA"/>
<path d="M21.0906 25.5458C23.8701 25.4307 25.7252 28.8628 23.9591 31.106C23.3189 31.9191 22.5049 32.3309 21.4888 32.4466C16.9121 32.5344 16.7474 25.8715 21.0906 25.5458Z" fill="#0866CA"/>
<path d="M31.5779 23.3664C34.6458 23.2675 37.2958 25.5406 37.4821 28.6459C37.6728 31.8243 35.2385 34.417 32.0823 34.605C29.0553 34.7364 26.2629 32.4584 26.0922 29.3842C25.9125 26.1453 28.3774 23.5423 31.5779 23.3664Z" fill="#0866CA"/>
<path d="M31.6062 24.7667C32.2137 24.7416 32.3617 25.1592 32.3472 25.6629C34.2418 26.423 33.9262 28.335 32.9099 28.0752C32.5381 27.9801 32.6521 26.9966 32.0546 26.8786C31.2268 26.7153 30.5226 27.3727 31.0652 28.0461C31.3414 28.3889 31.9651 28.281 32.3562 28.3364L32.3922 28.3417C34.0535 28.5718 34.432 31.1779 32.5512 31.9212L32.5199 31.9335C32.529 32.304 32.5141 32.5796 32.1575 32.7639C31.2533 33.0053 31.3129 32.5272 31.1609 32.0085L31.0914 31.9994C30.8766 31.9731 30.6862 31.779 30.5401 31.6289C30.018 31.0923 29.5597 29.7096 30.6343 29.8027C31.0329 29.8373 30.9796 30.3475 31.2089 30.6146C31.9015 31.4211 33.2116 30.2976 32.4334 29.6484L32.4058 29.6259C32.2146 29.462 31.4345 29.5428 31.1389 29.4954C29.2842 29.1981 29.3716 26.2233 30.9432 25.7826C31.5484 25.613 30.7814 24.9504 31.6062 24.7667Z" fill="#A8CEF9"/>
</g>
</g>
<defs>
<filter id="filter0_d_15_10620" x="0" y="0.5" width="64" height="64" filterUnits="userSpaceOnUse" color-interpolation-filters="sRGB">
<feFlood flood-opacity="0" result="BackgroundImageFix"/>
<feColorMatrix in="SourceAlpha" type="matrix" values="0 0 0 0 0 0 0 0 0 0 0 0 0 0 0 0 0 0 127 0" result="hardAlpha"/>
<feOffset dy="4"/>
<feGaussianBlur stdDeviation="4"/>
<feComposite in2="hardAlpha" operator="out"/>
<feColorMatrix type="matrix" values="0 0 0 0 0 0 0 0 0 0 0 0 0 0 0 0 0 0 0.12 0"/>
<feBlend mode="normal" in2="BackgroundImageFix" result="effect1_dropShadow_15_10620"/>
<feBlend mode="normal" in="SourceGraphic" in2="effect1_dropShadow_15_10620" result="shape"/>
</filter>
<linearGradient id="paint0_linear_15_10620" x1="31.4574" y1="19.5778" x2="32.0806" y2="38.7164" gradientUnits="userSpaceOnUse">
<stop stop-color="#0866CA"/>
<stop offset="1" stop-color="#AACFF6"/>
</linearGradient>
<clipPath id="clip0_15_10620">
<rect x="8" y="4.5" width="48" height="48" rx="24" fill="white"/>
</clipPath>
</defs>
</svg>
