<svg width="22" height="18" viewBox="0 0 22 18" fill="none" xmlns="http://www.w3.org/2000/svg">
<path d="M20.7069 5.50666H19.2579L19.2695 5.47522L19.1137 5.14148C18.6334 4.11367 16.9622 0.709795 15.6365 0.0761796L15.4796 0H6.52157L6.36456 0.0761796C5.03651 0.709795 3.36776 4.11367 2.88631 5.14148L2.73044 5.47522L2.74328 5.50666H1.29428C0.857025 5.50666 0.5 5.82708 0.5 6.2237V6.98428C0.5 7.37969 0.857025 7.70134 1.29428 7.70134H1.75479C1.70711 7.94318 1.6757 8.19227 1.6757 8.45345V11.8682C1.6757 12.8936 2.06876 13.7957 2.6665 14.3531V17.1753C2.6665 17.6324 3.02234 18 3.45959 18H5.24701C5.68427 18 6.04016 17.6324 6.04016 17.1753V14.9395H15.9598V17.1753C15.9598 17.6324 16.3157 18 16.7541 18H18.5392C18.98 18 19.3334 17.6324 19.3334 17.1753V14.3531C19.9335 13.7957 20.3254 12.8936 20.3254 11.8682V8.45345C20.3254 8.19227 20.294 7.94318 20.2452 7.70134H20.7069C21.1453 7.70134 21.5 7.37969 21.5 6.98549V6.2237C21.5 5.82708 21.1453 5.50666 20.7069 5.50666ZM6.90769 1.65055H15.0911C15.6342 2.07618 16.6599 3.77146 17.4542 5.3809H4.54926C5.34121 3.77146 6.36694 2.07618 6.90769 1.65055V1.65055Z" fill="#23262F"/>
</svg>
