<svg width="64" height="65" viewBox="0 0 64 65" fill="none" xmlns="http://www.w3.org/2000/svg">
<g filter="url(#filter0_d_15_10596)">
<rect x="8" y="4.5" width="48" height="48" rx="24" fill="white"/>
<path d="M42.2921 35.401C43.7245 35.3186 44.479 36.3895 45.3924 37.309L47.7133 39.6304C48.2702 40.1902 48.9226 40.704 49.4081 41.3265C50.6969 42.9787 49.2677 45.5024 47.305 45.8955L46.8446 45.9529C45.7793 45.9952 45.0637 45.4503 44.3672 44.7294L41.1765 41.4916C40.5044 40.8064 39.4823 40.0941 39.2884 39.0896L39.2386 38.7201C39.1427 37.063 40.6975 35.4823 42.2921 35.401Z" fill="#0866CA"/>
<path d="M27.6339 13.4941C33.0747 13.5244 37.7917 17.4734 38.4117 22.9573C38.7181 25.6667 38.0521 28.5674 36.3327 30.7163C36.5431 30.8526 36.6762 31.0331 36.8409 31.2182L38.4899 32.8855C38.7159 33.106 39.0108 33.3274 39.1817 33.5925L39.2031 33.627C39.9298 34.7728 38.9605 36.1094 37.4591 35.4787C36.5863 35.1121 35.9672 34.2986 35.3091 33.646C34.9891 33.3288 34.6312 33.0408 34.334 32.7029L32.8328 33.6596C31.8524 34.1569 30.8222 34.5523 29.7336 34.7326C23.7963 35.7157 18.2528 31.7866 17.3021 25.7539L17.2293 25.1977C17.1705 24.8566 17.1893 24.4939 17.1896 24.1484C17.1953 18.3721 21.8616 13.554 27.6339 13.4941Z" fill="#0866CA"/>
<path d="M27.564 16.6135C27.9243 16.5958 28.3097 16.5939 28.6675 16.6351C32.1437 17.036 35.1749 20.1545 35.3925 23.6732C35.6631 28.0505 32.6089 31.6949 28.1847 31.9003L27.7905 31.8998C25.8006 31.8731 23.6954 30.8643 22.3136 29.4444C18.6587 25.689 20.1872 19.0011 25.0154 17.1026C25.773 16.8047 26.7474 16.5972 27.564 16.6135Z" fill="#A8CEF9"/>
</g>
<defs>
<filter id="filter0_d_15_10596" x="0" y="0.5" width="64" height="64" filterUnits="userSpaceOnUse" color-interpolation-filters="sRGB">
<feFlood flood-opacity="0" result="BackgroundImageFix"/>
<feColorMatrix in="SourceAlpha" type="matrix" values="0 0 0 0 0 0 0 0 0 0 0 0 0 0 0 0 0 0 127 0" result="hardAlpha"/>
<feOffset dy="4"/>
<feGaussianBlur stdDeviation="4"/>
<feComposite in2="hardAlpha" operator="out"/>
<feColorMatrix type="matrix" values="0 0 0 0 0 0 0 0 0 0 0 0 0 0 0 0 0 0 0.12 0"/>
<feBlend mode="normal" in2="BackgroundImageFix" result="effect1_dropShadow_15_10596"/>
<feBlend mode="normal" in="SourceGraphic" in2="effect1_dropShadow_15_10596" result="shape"/>
</filter>
</defs>
</svg>
