<svg width="65" height="65" viewBox="0 0 65 65" fill="none" xmlns="http://www.w3.org/2000/svg">
<g filter="url(#filter0_d_15_2682)">
<g clip-path="url(#clip0_15_2682)">
<rect x="8.41992" y="4.75977" width="48" height="48" rx="24" fill="white"/>
<path d="M36.6 22.5035C37.2421 21.5447 38.378 21.4731 39.4208 21.4727L40.776 21.4945C42.6864 21.7361 44.0139 22.8885 45.2684 24.2203L46.379 25.3729C47.27 26.2832 48.1944 27.1706 48.986 28.1712C50.1664 29.6634 50.2828 30.7517 50.2824 32.5367C50.2821 33.8024 50.4003 34.9973 49.2768 35.8667C48.716 36.3008 48.0429 36.3758 47.3565 36.3662C47.3135 36.3656 47.2801 36.345 47.2734 36.3891C46.3749 42.3686 39.4109 41.5301 38.8623 36.4596L33.6309 36.4307L32.9443 36.4312L32.7969 36.3964C32.8533 36.35 32.9508 36.3305 33.0198 36.3069L33.5088 36.1381C33.5428 36.0928 33.8056 36.0065 33.8743 35.9735C35.3856 35.2478 36.396 33.6418 36.5807 31.999C36.6386 31.4845 36.6041 30.9372 36.6042 30.4182L36.6033 28.1654L36.6 22.5035ZM41.9829 24.2014C40.7744 24.3803 40.9317 25.3169 40.9309 26.2406C40.9298 27.4351 40.8446 28.4989 42.2769 28.9378C42.5714 29.028 42.9971 28.9786 43.308 28.9793L45.0767 28.9907C45.6849 28.9437 46.2666 28.4138 46.0899 27.7568L46.0811 27.7228C45.9237 27.1606 44.5188 25.9958 44.0767 25.5675C43.4646 24.9743 42.9381 24.1531 41.9829 24.2014Z" fill="#0866CA"/>
<path d="M17.2493 20.8322L18.0228 20.8239C18.3015 19.6809 19.077 18.6469 20.0811 18.0354C21.4339 17.2116 22.9301 17.2794 24.4528 17.2786L30.572 17.2744C31.4289 17.2728 32.3403 17.1975 33.1782 17.4047C35.2203 17.9098 36.5379 19.5177 36.5471 21.6104C36.5484 21.8934 36.5211 22.2297 36.6003 22.5031L36.604 28.1651L36.6042 30.4179C36.6041 30.9369 36.6386 31.4841 36.5807 31.9986C36.396 33.6414 35.3856 35.2474 33.8743 35.9732C33.8056 36.0062 33.5428 36.0924 33.5088 36.1377L33.0198 36.3066C32.9508 36.3302 32.8533 36.3496 32.7969 36.396L32.9443 36.4287L30.0766 36.3771C30.0786 36.6623 30.0781 36.9662 30.0213 37.2685C29.4488 40.3119 25.5154 41.7137 23.2597 39.4174C22.6951 38.8427 22.0662 37.8042 22.0298 36.961L21.9893 36.6697L21.9743 36.576C21.9462 36.4241 21.7478 36.5013 21.6289 36.4968C20.7926 36.4642 19.8897 36.1514 19.2013 35.69C17.5399 34.5762 17.2098 32.7406 17.2114 30.8728L17.213 28.2735C17.2141 27.9641 17.2096 27.6336 17.2695 27.3296L17.3078 27.0855C17.3184 27.0065 17.336 26.9709 17.3918 26.9142L17.4078 26.8985C17.2314 26.8701 17.0432 26.8907 16.863 26.8707L16.8335 26.8671L16.0743 26.8611C15.9211 26.8595 15.749 26.8673 15.6004 26.8308L15.5703 26.8227C14.6929 26.5953 14.8099 25.3488 15.7442 25.1975C16.236 25.1213 16.7515 25.2305 17.2344 25.1593C17.1837 24.4395 17.3506 23.2975 17.5037 22.6119C17.5803 22.5927 17.6426 22.5567 17.6475 22.4712C17.5529 22.4697 17.4532 22.4733 17.3607 22.452L17.3146 22.4405L14.9745 22.4267C14.8196 22.425 14.6659 22.4319 14.5232 22.3617L14.4922 22.3461C13.87 22.0513 13.8435 21.0599 14.5235 20.8416L14.5508 20.8335C14.7612 20.7694 15.0969 20.8251 15.3206 20.8261L17.2493 20.8322Z" fill="#A8CEF9"/>
<path d="M17.3146 22.4309L14.9745 22.4267C14.8196 22.4251 14.6659 22.4319 14.5232 22.3617L14.4922 22.3461C13.87 22.0513 13.8435 21.0599 14.5235 20.8417L14.5508 20.8336C14.7612 20.7694 15.0969 20.8251 15.3206 20.8261L17.2493 20.8322L19.9049 20.8366C20.0789 20.8373 20.2618 20.8333 20.4312 20.877L20.4613 20.8843C21.1158 21.0561 21.0027 22.302 20.1164 22.4112C19.4763 22.49 17.9814 22.4672 17.3146 22.4309Z" fill="#0866CA"/>
<path d="M15.7443 25.1977L28.0709 25.1621C28.5025 25.1622 29.1799 25.0528 29.5692 25.2873L29.6018 25.3065C30.2234 25.6842 30.18 26.6057 29.4689 26.8207L29.4318 26.8324C29.266 26.8803 29.0804 26.8649 28.9089 26.864L25.8433 26.8594L16.8336 26.8632L16.0744 26.8612C15.9212 26.8597 15.7491 26.8675 15.6006 26.8309L15.5705 26.8229C14.693 26.5955 14.81 25.3489 15.7443 25.1977Z" fill="#0866CA"/>
<path d="M25.0251 32.5573C27.3465 31.9245 29.8143 33.6034 30.0414 35.9657C30.0534 36.0907 30.0495 36.2351 30.0776 36.3564C30.0795 36.6626 30.0791 36.9665 30.0222 37.2688C29.4498 40.3123 25.5164 41.714 23.2607 39.4177C22.6961 38.843 22.0672 37.8045 22.0308 36.9613L21.9903 36.67C21.9844 34.8604 23.2288 33.0163 25.0251 32.5573Z" fill="#0866CA"/>
</g>
</g>
<defs>
<filter id="filter0_d_15_2682" x="0.419922" y="0.759766" width="64" height="64" filterUnits="userSpaceOnUse" color-interpolation-filters="sRGB">
<feFlood flood-opacity="0" result="BackgroundImageFix"/>
<feColorMatrix in="SourceAlpha" type="matrix" values="0 0 0 0 0 0 0 0 0 0 0 0 0 0 0 0 0 0 127 0" result="hardAlpha"/>
<feOffset dy="4"/>
<feGaussianBlur stdDeviation="4"/>
<feComposite in2="hardAlpha" operator="out"/>
<feColorMatrix type="matrix" values="0 0 0 0 0 0 0 0 0 0 0 0 0 0 0 0 0 0 0.12 0"/>
<feBlend mode="normal" in2="BackgroundImageFix" result="effect1_dropShadow_15_2682"/>
<feBlend mode="normal" in="SourceGraphic" in2="effect1_dropShadow_15_2682" result="shape"/>
</filter>
<clipPath id="clip0_15_2682">
<rect x="8.41992" y="4.75977" width="48" height="48" rx="24" fill="white"/>
</clipPath>
</defs>
</svg>
