<svg width="17" height="20" viewBox="0 0 17 20" fill="none" xmlns="http://www.w3.org/2000/svg">
<path d="M2.64683 15.4138V4.58727C1.62091 4.34606 0.853356 3.42517 0.853356 2.32526C0.853356 1.0431 1.89642 0 3.17854 0C4.46174 0 5.50373 1.0431 5.50373 2.32526C5.50373 3.42517 4.73617 4.34606 3.71025 4.58727V9.46291H8.39496V4.58727C7.36798 4.34606 6.60149 3.42517 6.60149 2.32526C6.60149 1.0431 7.64455 0 8.92668 0C10.2088 0 11.2519 1.0431 11.2519 2.32526C11.2519 3.42517 10.4843 4.34606 9.45729 4.58727V9.46291H14.142V4.58727C13.1161 4.34606 12.3485 3.42517 12.3485 2.32526C12.3485 1.0431 13.3916 0 14.6737 0C15.9558 0 17 1.0431 17 2.32526C17 3.42517 16.2324 4.34606 15.2054 4.58727V10.5382H9.45729V15.4138C10.4843 15.6539 11.2519 16.5759 11.2519 17.6758C11.2519 18.9569 10.2088 20 8.92668 20C7.64455 20 6.60149 18.9569 6.60149 17.6758C6.60149 16.5759 7.36798 15.6539 8.39496 15.4138V10.5382H3.71025V15.4138C4.73617 15.6539 5.50373 16.5759 5.50373 17.6758C5.50373 18.9569 4.46174 20 3.17854 20C1.89642 20 0.853356 18.9569 0.853356 17.6758C0.853356 16.5759 1.62091 15.6539 2.64683 15.4138ZM14.6737 3.58813C15.3705 3.58813 15.9366 3.02208 15.9366 2.32526C15.9366 1.6295 15.3705 1.0624 14.6737 1.0624C13.978 1.0624 13.4109 1.6295 13.4109 2.32526C13.4109 3.02208 13.978 3.58813 14.6737 3.58813ZM7.66382 17.6758C7.66382 18.3705 8.22987 18.9376 8.92668 18.9376C9.62241 18.9376 10.1895 18.3705 10.1895 17.6758C10.1895 16.979 9.62241 16.413 8.92668 16.413C8.22987 16.413 7.66382 16.979 7.66382 17.6758ZM8.92668 3.58813C9.62241 3.58813 10.1895 3.02208 10.1895 2.32526C10.1895 1.6295 9.62241 1.0624 8.92668 1.0624C8.22987 1.0624 7.66382 1.6295 7.66382 2.32526C7.66382 3.02208 8.22987 3.58813 8.92668 3.58813ZM4.44135 2.32526C4.44135 1.6295 3.87428 1.0624 3.17854 1.0624C2.48281 1.0624 1.91574 1.6295 1.91574 2.32526C1.91574 3.02208 2.48281 3.58813 3.17854 3.58813C3.87428 3.58813 4.44135 3.02208 4.44135 2.32526ZM3.17854 18.9376C3.87428 18.9376 4.44135 18.3705 4.44135 17.6758C4.44135 16.979 3.87428 16.413 3.17854 16.413C2.48281 16.413 1.91574 16.979 1.91574 17.6758C1.91574 18.3705 2.48281 18.9376 3.17854 18.9376Z" fill="#23262F"/>
</svg>
