<svg width="24" height="24" viewBox="0 0 24 24" fill="none" xmlns="http://www.w3.org/2000/svg">
<g clip-path="url(#clip0_53_38727)">
<path d="M17.3125 2H6.6875C4.09867 2 2 4.09867 2 6.6875V17.3125C2 19.9013 4.09867 22 6.6875 22H17.3125C19.9013 22 22 19.9013 22 17.3125V6.6875C22 4.09867 19.9013 2 17.3125 2Z" fill="white"/>
<path d="M17.3125 2H6.6875C4.09867 2 2 4.09867 2 6.6875V17.3125C2 19.9013 4.09867 22 6.6875 22H17.3125C19.9013 22 22 19.9013 22 17.3125V6.6875C22 4.09867 19.9013 2 17.3125 2Z" fill="#1D9BF0"/>
<path d="M16.9666 9.33712C16.8474 9.43502 16.7781 9.58257 16.7787 9.73685C16.7788 9.76318 16.7788 9.78954 16.7788 9.81597C16.7788 13.152 14.3026 16.9994 9.77484 17C9.77427 17 9.7738 16.9995 9.7738 16.999C9.7738 16.9984 9.77334 16.9979 9.77277 16.998C8.63043 16.9995 7.50833 16.713 6.50386 16.1679C6.37612 16.0986 6.44066 15.9022 6.586 15.9025C7.18202 15.903 7.76882 15.793 8.31953 15.5821C8.8061 15.3958 8.63406 14.6368 8.21969 14.3209C7.89314 14.0719 7.6331 13.7451 7.46085 13.3707C7.39935 13.2371 7.52074 13.099 7.6676 13.1076C7.8703 13.1196 7.89059 12.8404 7.71567 12.7373C6.96831 12.2968 6.4802 11.4717 6.4802 10.5479C6.4802 10.5336 6.49562 10.5247 6.50809 10.5316C6.614 10.5902 6.72368 10.6406 6.8362 10.6825C7.04995 10.7621 7.17276 10.4792 7.03346 10.2986C6.6507 9.80239 6.46568 9.17704 6.5079 8.55324C6.54501 8.00492 7.21315 7.93049 7.61953 8.30047C8.0663 8.70723 8.56327 9.05461 9.09893 9.33308C9.57993 9.58315 10.0862 9.77456 10.6074 9.90451C11.2497 10.0647 11.764 9.42958 11.9514 8.79466C12.0764 8.37132 12.3076 7.98906 12.6218 7.68609C13.5415 6.7995 14.9496 6.77734 15.8927 7.58961C16.0318 7.70941 16.2157 7.77538 16.393 7.72802C16.6277 7.66536 16.8574 7.58509 17.0803 7.48796C17.2914 7.39595 17.5135 7.58807 17.3906 7.78277C17.3371 7.86737 17.2788 7.94858 17.216 8.02598C17.0915 8.17938 17.2193 8.46295 17.4083 8.40534C17.5845 8.35165 17.742 8.54805 17.6233 8.68881C17.4243 8.92476 17.2045 9.1418 16.9666 9.33712Z" fill="white"/>
</g>
<defs>
<clipPath id="clip0_53_38727">
<rect x="2" y="2" width="20" height="20" rx="10" fill="white"/>
</clipPath>
</defs>
</svg>
