<svg width="20" height="20" viewBox="0 0 20 20" fill="none" xmlns="http://www.w3.org/2000/svg">
<path d="M9 11.9374C9 13.1678 7.41406 14.1249 5.5 14.1249C3.55859 14.1249 2 13.1678 2 11.9374C2 11.5272 1.91797 11.746 4.32422 6.98816C4.78906 6.03113 6.18359 6.03113 6.64844 6.98816C9.02734 11.7186 8.97266 11.4999 8.97266 11.9374H9ZM5.5 7.56238L3.53125 11.4999H7.46875L5.5 7.56238ZM19.4727 11.9374H19.5C19.5 13.1678 17.9141 14.1249 16 14.1249C14.0586 14.1249 12.5 13.1678 12.5 11.9374C12.5 11.5272 12.418 11.746 14.8242 6.98816C15.2891 6.03113 16.6836 6.03113 17.1484 6.98816C19.5273 11.7186 19.4727 11.4999 19.4727 11.9374ZM14.0312 11.4999H17.9688L16 7.56238L14.0312 11.4999ZM16.4375 14.9999C16.6562 14.9999 16.875 15.2186 16.875 15.4374V16.3124C16.875 16.5585 16.6562 16.7499 16.4375 16.7499H5.0625C4.81641 16.7499 4.625 16.5585 4.625 16.3124V15.4374C4.625 15.2186 4.81641 14.9999 5.0625 14.9999H9.875V6.96082C9.21875 6.66003 8.72656 6.08582 8.58984 5.37488H5.0625C4.81641 5.37488 4.625 5.18347 4.625 4.93738V4.06238C4.625 3.84363 4.81641 3.62488 5.0625 3.62488H9C9.38281 3.10535 10.0117 2.74988 10.75 2.74988C11.4609 2.74988 12.0898 3.10535 12.4727 3.62488H16.4375C16.6562 3.62488 16.875 3.84363 16.875 4.06238V4.93738C16.875 5.18347 16.6562 5.37488 16.4375 5.37488H12.8828C12.7461 6.08582 12.2539 6.66003 11.625 6.96082V14.9999H16.4375Z" fill="#0866CA"/>
</svg>
