<svg width="28" height="28" viewBox="0 0 28 28" fill="none" xmlns="http://www.w3.org/2000/svg">
<g clip-path="url(#clip0_15_3449)">
<path d="M0.598008 14.4145C0.597352 16.7854 1.21685 19.1005 2.39482 21.141L0.485352 28.1127L7.6201 26.242C9.59349 27.3163 11.8045 27.8792 14.0514 27.8793H14.0573C21.4745 27.8793 27.5124 21.8437 27.5155 14.4251C27.5169 10.8303 26.1183 7.44994 23.577 4.90675C21.0363 2.36378 17.6571 0.962578 14.0567 0.960938C6.63857 0.960938 0.60118 6.99625 0.598117 14.4145" fill="url(#paint0_linear_15_3449)"/>
<path d="M0.117031 14.41C0.116266 16.8662 0.757969 19.2641 1.97794 21.3776L0 28.5993L7.39058 26.6615C9.42692 27.7718 11.7196 28.3572 14.0526 28.358H14.0586C21.742 28.358 27.9967 22.1053 28 14.4212C28.0013 10.6972 26.5523 7.1953 23.9203 4.561C21.288 1.92703 17.788 0.475408 14.0586 0.473877C6.37394 0.473877 0.120094 6.72575 0.117031 14.41ZM4.51839 21.0136L4.24244 20.5756C3.08241 18.7311 2.47012 16.5996 2.471 14.4109C2.47341 8.02392 7.67134 2.82763 14.063 2.82763C17.1583 2.82894 20.0672 4.03556 22.2552 6.22481C24.443 8.41428 25.6469 11.3248 25.6461 14.4203C25.6433 20.8072 20.4452 26.0042 14.0586 26.0042H14.054C11.9745 26.0031 9.93497 25.4446 8.15631 24.3893L7.73303 24.1383L3.34731 25.2881L4.51839 21.0136Z" fill="url(#paint1_linear_15_3449)"/>
<path d="M10.5746 8.58375C10.3137 8.00374 10.039 7.99203 9.79085 7.98186C9.58763 7.97311 9.35532 7.97377 9.12322 7.97377C8.89091 7.97377 8.51346 8.06116 8.19441 8.40952C7.87504 8.7582 6.9751 9.60083 6.9751 11.3146C6.9751 13.0284 8.22339 14.6848 8.39741 14.9174C8.57164 15.1496 10.8073 18.7791 14.348 20.1754C17.2906 21.3358 17.8894 21.105 18.528 21.0468C19.1668 20.9888 20.5891 20.2044 20.8793 19.391C21.1697 18.5777 21.1697 17.8805 21.0826 17.7348C20.9955 17.5897 20.7632 17.5025 20.4149 17.3284C20.0665 17.1543 18.3538 16.3114 18.0345 16.1952C17.7152 16.079 17.483 16.021 17.2507 16.3698C17.0183 16.7181 16.3513 17.5025 16.1479 17.7348C15.9448 17.9677 15.7415 17.9967 15.3933 17.8224C15.0447 17.6477 13.9228 17.2803 12.5918 16.0937C11.5563 15.1703 10.8571 14.0301 10.6539 13.6813C10.4507 13.333 10.6322 13.1443 10.8068 12.9707C10.9633 12.8146 11.1553 12.5639 11.3296 12.3606C11.5033 12.1571 11.5613 12.012 11.6775 11.7797C11.7937 11.5472 11.7355 11.3437 11.6486 11.1695C11.5613 10.9953 10.8844 9.27249 10.5746 8.58375Z" fill="white"/>
</g>
<defs>
<linearGradient id="paint0_linear_15_3449" x1="1351.99" y1="2716.14" x2="1351.99" y2="0.960938" gradientUnits="userSpaceOnUse">
<stop stop-color="#1FAF38"/>
<stop offset="1" stop-color="#60D669"/>
</linearGradient>
<linearGradient id="paint1_linear_15_3449" x1="1400" y1="2813.02" x2="1400" y2="0.473877" gradientUnits="userSpaceOnUse">
<stop stop-color="#F9F9F9"/>
<stop offset="1" stop-color="white"/>
</linearGradient>
<clipPath id="clip0_15_3449">
<rect width="28" height="28" fill="white"/>
</clipPath>
</defs>
</svg>
