<svg width="222" height="145" viewBox="0 0 222 145" fill="none" xmlns="http://www.w3.org/2000/svg">
<g filter="url(#filter0_d_15_10603)">
<rect x="8" y="4" width="206" height="36" rx="2.8545" fill="#E05153" shape-rendering="crispEdges"/>
<path d="M67.8092 19.4593C67.9505 19.347 68.1607 19.4521 68.1607 19.6297V27.0405C68.1607 28.0008 67.3816 28.78 66.4213 28.78H51.3459C50.3856 28.78 49.6064 28.0008 49.6064 27.0405V19.6333C49.6064 19.4521 49.813 19.3506 49.958 19.463C50.7697 20.0935 51.846 20.8944 55.5424 23.5797C56.307 24.1378 57.5971 25.3119 58.8836 25.3047C60.1773 25.3155 61.4928 24.116 62.2284 23.5797C65.9248 20.8944 66.9975 20.0899 67.8092 19.4593ZM58.8836 24.1414C59.7243 24.1559 60.9347 23.0832 61.5435 22.6411C66.3524 19.1513 66.7184 18.8469 67.8273 17.9772C68.0375 17.8141 68.1607 17.5604 68.1607 17.2923V16.6037C68.1607 15.6434 67.3816 14.8643 66.4213 14.8643H51.3459C50.3856 14.8643 49.6064 15.6434 49.6064 16.6037V17.2923C49.6064 17.5604 49.7297 17.8105 49.9398 17.9772C51.0488 18.8433 51.4148 19.1513 56.2237 22.6411C56.8325 23.0832 58.0428 24.1559 58.8836 24.1414Z" fill="white"/>
<path d="M82.6689 20.9126V24.0117C82.5472 24.1585 82.3592 24.3179 82.105 24.4897C81.8507 24.658 81.5231 24.8031 81.1221 24.9248C80.721 25.0465 80.2358 25.1074 79.6665 25.1074C79.1616 25.1074 78.7015 25.0251 78.2861 24.8604C77.8708 24.6921 77.5127 24.4468 77.2119 24.1245C76.9147 23.8022 76.6855 23.4084 76.5244 22.9429C76.3633 22.4738 76.2827 21.9385 76.2827 21.3369V20.8481C76.2827 20.2466 76.3597 19.7113 76.5137 19.2422C76.6712 18.7731 76.895 18.3774 77.1851 18.0552C77.4751 17.7329 77.8206 17.4876 78.2217 17.3193C78.6227 17.151 79.0685 17.0669 79.5591 17.0669C80.2394 17.0669 80.798 17.1779 81.2349 17.3999C81.6717 17.6183 82.0047 17.9227 82.2339 18.313C82.4666 18.6997 82.6099 19.1437 82.6636 19.645H81.1006C81.0612 19.38 80.986 19.1491 80.875 18.9521C80.764 18.7552 80.6047 18.6012 80.397 18.4902C80.1929 18.3792 79.9279 18.3237 79.6021 18.3237C79.3335 18.3237 79.0936 18.3792 78.8823 18.4902C78.6746 18.5977 78.4992 18.757 78.356 18.9683C78.2127 19.1795 78.1035 19.4409 78.0283 19.7524C77.9531 20.064 77.9155 20.4256 77.9155 20.8374V21.3369C77.9155 21.7451 77.9549 22.1068 78.0337 22.4219C78.1125 22.7334 78.2288 22.9966 78.3828 23.2114C78.5404 23.4227 78.7337 23.582 78.9629 23.6895C79.1921 23.7969 79.4588 23.8506 79.7632 23.8506C80.0174 23.8506 80.2287 23.8291 80.397 23.7861C80.5688 23.7432 80.7067 23.6912 80.8105 23.6304C80.918 23.5659 81.0003 23.505 81.0576 23.4478V22.062H79.5859V20.9126H82.6689ZM86.5469 25.1074C86.0957 25.1074 85.6911 25.0358 85.333 24.8926C84.9749 24.7458 84.6706 24.5435 84.4199 24.2856C84.1729 24.0278 83.9831 23.7288 83.8506 23.3887C83.7181 23.0449 83.6519 22.6797 83.6519 22.293V22.0781C83.6519 21.6377 83.7145 21.2349 83.8398 20.8696C83.9652 20.5044 84.1442 20.1875 84.377 19.9189C84.6133 19.6504 84.8997 19.4445 85.2363 19.3013C85.5729 19.1545 85.9525 19.0811 86.375 19.0811C86.7868 19.0811 87.152 19.1491 87.4707 19.2852C87.7894 19.4212 88.0562 19.6146 88.271 19.8652C88.4894 20.1159 88.6541 20.4167 88.7651 20.7676C88.8761 21.1149 88.9316 21.5016 88.9316 21.9277V22.5723H84.3125V21.541H87.4116V21.4229C87.4116 21.208 87.3722 21.0164 87.2935 20.8481C87.2183 20.6763 87.1037 20.5402 86.9497 20.4399C86.7957 20.3397 86.5988 20.2896 86.3589 20.2896C86.1548 20.2896 85.9793 20.3343 85.8325 20.4238C85.6857 20.5133 85.5658 20.6387 85.4727 20.7998C85.3831 20.9609 85.3151 21.1507 85.2686 21.3691C85.2256 21.584 85.2041 21.8203 85.2041 22.0781V22.293C85.2041 22.5257 85.2363 22.7406 85.3008 22.9375C85.3688 23.1344 85.4637 23.3045 85.5854 23.4478C85.7108 23.591 85.8612 23.702 86.0366 23.7808C86.2157 23.8595 86.418 23.8989 86.6436 23.8989C86.9229 23.8989 87.1825 23.8452 87.4224 23.7378C87.6659 23.6268 87.8753 23.4603 88.0508 23.2383L88.8027 24.0547C88.681 24.2301 88.5145 24.3984 88.3032 24.5596C88.0955 24.7207 87.8449 24.8532 87.5513 24.957C87.2576 25.0573 86.9229 25.1074 86.5469 25.1074ZM92.6592 19.1885V20.2842H89.2754V19.1885H92.6592ZM90.1133 17.7544H91.6602V23.249C91.6602 23.4173 91.6816 23.5462 91.7246 23.6357C91.7712 23.7253 91.8392 23.7879 91.9287 23.8237C92.0182 23.856 92.131 23.8721 92.2671 23.8721C92.3638 23.8721 92.4497 23.8685 92.5249 23.8613C92.6037 23.8506 92.6699 23.8398 92.7236 23.8291L92.729 24.9678C92.5965 25.0107 92.4533 25.0448 92.2993 25.0698C92.1453 25.0949 91.9753 25.1074 91.7891 25.1074C91.4489 25.1074 91.1517 25.0519 90.8975 24.9409C90.6468 24.8263 90.4535 24.6437 90.3174 24.3931C90.1813 24.1424 90.1133 23.813 90.1133 23.4048V17.7544ZM99.416 23.6895V21.1006C99.416 20.9144 99.3856 20.755 99.3247 20.6226C99.2638 20.4865 99.1689 20.3809 99.04 20.3057C98.9147 20.2305 98.7518 20.1929 98.5513 20.1929C98.3794 20.1929 98.2308 20.2233 98.1055 20.2842C97.9801 20.3415 97.8835 20.4256 97.8154 20.5366C97.7474 20.644 97.7134 20.7712 97.7134 20.918H96.1665C96.1665 20.6709 96.2238 20.4364 96.3384 20.2144C96.453 19.9924 96.6195 19.7972 96.8379 19.6289C97.0563 19.457 97.3159 19.3228 97.6167 19.2261C97.9211 19.1294 98.2612 19.0811 98.6372 19.0811C99.0884 19.0811 99.4894 19.1562 99.8403 19.3066C100.191 19.457 100.467 19.6826 100.667 19.9834C100.872 20.2842 100.974 20.6602 100.974 21.1113V23.5981C100.974 23.9168 100.993 24.1782 101.033 24.3823C101.072 24.5828 101.129 24.7583 101.205 24.9087V25H99.6416C99.5664 24.8424 99.5091 24.6455 99.4697 24.4092C99.4339 24.1693 99.416 23.9294 99.416 23.6895ZM99.6201 21.4604L99.6309 22.3359H98.7661C98.562 22.3359 98.3848 22.3592 98.2344 22.4058C98.084 22.4523 97.9604 22.5186 97.8638 22.6045C97.7671 22.6868 97.6955 22.7835 97.6489 22.8945C97.606 23.0055 97.5845 23.1273 97.5845 23.2598C97.5845 23.3923 97.6149 23.5122 97.6758 23.6196C97.7367 23.7235 97.8244 23.8058 97.939 23.8667C98.0535 23.924 98.1878 23.9526 98.3418 23.9526C98.5745 23.9526 98.7769 23.9061 98.9487 23.813C99.1206 23.7199 99.2531 23.6053 99.3462 23.4692C99.4429 23.3332 99.493 23.2043 99.4966 23.0825L99.9048 23.7378C99.8475 23.8846 99.7687 24.0368 99.6685 24.1943C99.5718 24.3519 99.4482 24.5005 99.2979 24.6401C99.1475 24.7762 98.9666 24.889 98.7554 24.9785C98.5441 25.0645 98.2935 25.1074 98.0034 25.1074C97.6346 25.1074 97.2998 25.034 96.999 24.8872C96.7018 24.7368 96.4655 24.5309 96.29 24.2695C96.1182 24.0046 96.0322 23.7038 96.0322 23.3672C96.0322 23.0628 96.0895 22.7925 96.2041 22.5562C96.3187 22.3198 96.487 22.1211 96.709 21.96C96.9346 21.7952 97.2157 21.6717 97.5522 21.5894C97.8888 21.5034 98.2791 21.4604 98.7231 21.4604H99.6201ZM106.876 25H105.319V18.6729C105.319 18.2324 105.405 17.8618 105.577 17.561C105.752 17.2567 105.997 17.0275 106.312 16.8735C106.631 16.716 107.009 16.6372 107.446 16.6372C107.589 16.6372 107.727 16.6479 107.859 16.6694C107.992 16.6873 108.121 16.7106 108.246 16.7393L108.23 17.9048C108.162 17.8869 108.09 17.8743 108.015 17.8672C107.94 17.86 107.852 17.8564 107.752 17.8564C107.566 17.8564 107.406 17.8887 107.274 17.9531C107.145 18.014 107.047 18.1053 106.979 18.2271C106.91 18.3488 106.876 18.4974 106.876 18.6729V25ZM108.037 19.1885V20.2842H104.454V19.1885H108.037ZM110.395 20.4561V25H108.848V19.1885H110.303L110.395 20.4561ZM112.146 19.1509L112.119 20.585C112.043 20.5742 111.952 20.5653 111.845 20.5581C111.741 20.5474 111.646 20.542 111.56 20.542C111.342 20.542 111.152 20.5706 110.991 20.6279C110.833 20.6816 110.701 20.7622 110.593 20.8696C110.489 20.9771 110.411 21.1077 110.357 21.2617C110.307 21.4157 110.278 21.5911 110.271 21.7881L109.959 21.6914C109.959 21.3154 109.997 20.9699 110.072 20.6548C110.147 20.3361 110.257 20.0586 110.4 19.8223C110.547 19.5859 110.726 19.4033 110.937 19.2744C111.148 19.1455 111.39 19.0811 111.662 19.0811C111.748 19.0811 111.836 19.0882 111.925 19.1025C112.015 19.1133 112.088 19.1294 112.146 19.1509ZM115.443 25.1074C114.992 25.1074 114.588 25.0358 114.229 24.8926C113.871 24.7458 113.567 24.5435 113.316 24.2856C113.069 24.0278 112.88 23.7288 112.747 23.3887C112.615 23.0449 112.548 22.6797 112.548 22.293V22.0781C112.548 21.6377 112.611 21.2349 112.736 20.8696C112.862 20.5044 113.041 20.1875 113.273 19.9189C113.51 19.6504 113.796 19.4445 114.133 19.3013C114.469 19.1545 114.849 19.0811 115.271 19.0811C115.683 19.0811 116.049 19.1491 116.367 19.2852C116.686 19.4212 116.953 19.6146 117.167 19.8652C117.386 20.1159 117.551 20.4167 117.662 20.7676C117.773 21.1149 117.828 21.5016 117.828 21.9277V22.5723H113.209V21.541H116.308V21.4229C116.308 21.208 116.269 21.0164 116.19 20.8481C116.115 20.6763 116 20.5402 115.846 20.4399C115.692 20.3397 115.495 20.2896 115.255 20.2896C115.051 20.2896 114.876 20.3343 114.729 20.4238C114.582 20.5133 114.462 20.6387 114.369 20.7998C114.28 20.9609 114.212 21.1507 114.165 21.3691C114.122 21.584 114.101 21.8203 114.101 22.0781V22.293C114.101 22.5257 114.133 22.7406 114.197 22.9375C114.265 23.1344 114.36 23.3045 114.482 23.4478C114.607 23.591 114.758 23.702 114.933 23.7808C115.112 23.8595 115.314 23.8989 115.54 23.8989C115.819 23.8989 116.079 23.8452 116.319 23.7378C116.562 23.6268 116.772 23.4603 116.947 23.2383L117.699 24.0547C117.577 24.2301 117.411 24.3984 117.2 24.5596C116.992 24.7207 116.741 24.8532 116.448 24.957C116.154 25.0573 115.819 25.1074 115.443 25.1074ZM121.384 25.1074C120.933 25.1074 120.528 25.0358 120.17 24.8926C119.812 24.7458 119.507 24.5435 119.257 24.2856C119.01 24.0278 118.82 23.7288 118.688 23.3887C118.555 23.0449 118.489 22.6797 118.489 22.293V22.0781C118.489 21.6377 118.551 21.2349 118.677 20.8696C118.802 20.5044 118.981 20.1875 119.214 19.9189C119.45 19.6504 119.737 19.4445 120.073 19.3013C120.41 19.1545 120.789 19.0811 121.212 19.0811C121.624 19.0811 121.989 19.1491 122.308 19.2852C122.626 19.4212 122.893 19.6146 123.108 19.8652C123.326 20.1159 123.491 20.4167 123.602 20.7676C123.713 21.1149 123.769 21.5016 123.769 21.9277V22.5723H119.149V21.541H122.249V21.4229C122.249 21.208 122.209 21.0164 122.13 20.8481C122.055 20.6763 121.941 20.5402 121.787 20.4399C121.633 20.3397 121.436 20.2896 121.196 20.2896C120.992 20.2896 120.816 20.3343 120.669 20.4238C120.523 20.5133 120.403 20.6387 120.31 20.7998C120.22 20.9609 120.152 21.1507 120.105 21.3691C120.062 21.584 120.041 21.8203 120.041 22.0781V22.293C120.041 22.5257 120.073 22.7406 120.138 22.9375C120.206 23.1344 120.301 23.3045 120.422 23.4478C120.548 23.591 120.698 23.702 120.874 23.7808C121.053 23.8595 121.255 23.8989 121.48 23.8989C121.76 23.8989 122.019 23.8452 122.259 23.7378C122.503 23.6268 122.712 23.4603 122.888 23.2383L123.64 24.0547C123.518 24.2301 123.351 24.3984 123.14 24.5596C122.932 24.7207 122.682 24.8532 122.388 24.957C122.095 25.0573 121.76 25.1074 121.384 25.1074ZM130.821 27.2344V20.3755L131.02 19.1885H132.378V27.2344H130.821ZM127.147 22.1533V22.0405C127.147 21.5965 127.195 21.1937 127.292 20.832C127.392 20.4668 127.539 20.1553 127.732 19.8975C127.926 19.6361 128.162 19.4355 128.441 19.2959C128.724 19.1527 129.05 19.0811 129.419 19.0811C129.773 19.0811 130.08 19.1527 130.337 19.2959C130.595 19.4391 130.812 19.6414 130.987 19.9028C131.166 20.1642 131.31 20.4722 131.417 20.8267C131.524 21.1812 131.607 21.5697 131.664 21.9922V22.2393C131.61 22.6439 131.528 23.0199 131.417 23.3672C131.31 23.7145 131.166 24.0189 130.987 24.2803C130.812 24.5417 130.593 24.7458 130.332 24.8926C130.074 25.0358 129.766 25.1074 129.408 25.1074C129.047 25.1074 128.724 25.034 128.441 24.8872C128.162 24.7368 127.926 24.5291 127.732 24.2642C127.539 23.9992 127.392 23.6877 127.292 23.3296C127.195 22.9679 127.147 22.5758 127.147 22.1533ZM128.694 22.0405V22.1533C128.694 22.3932 128.714 22.6188 128.753 22.8301C128.792 23.0378 128.855 23.2222 128.941 23.3833C129.03 23.5444 129.145 23.6715 129.285 23.7646C129.424 23.8542 129.596 23.8989 129.8 23.8989C130.083 23.8989 130.311 23.8381 130.482 23.7163C130.658 23.591 130.787 23.4209 130.869 23.2061C130.955 22.9912 131.005 22.7459 131.02 22.4702V21.7666C131.009 21.541 130.978 21.3387 130.928 21.1597C130.882 20.9771 130.81 20.8213 130.713 20.6924C130.62 20.5635 130.499 20.465 130.348 20.397C130.201 20.3254 130.022 20.2896 129.811 20.2896C129.611 20.2896 129.439 20.3343 129.295 20.4238C129.152 20.5133 129.036 20.6387 128.946 20.7998C128.86 20.9574 128.796 21.1418 128.753 21.353C128.714 21.5643 128.694 21.7935 128.694 22.0405ZM137.035 23.6089V19.1885H138.582V25H137.126L137.035 23.6089ZM137.207 22.4165L137.664 22.4058C137.664 22.7925 137.619 23.1523 137.529 23.4854C137.44 23.8148 137.306 24.1012 137.126 24.3447C136.947 24.5846 136.722 24.7726 136.45 24.9087C136.178 25.0412 135.857 25.1074 135.488 25.1074C135.205 25.1074 134.944 25.068 134.704 24.9893C134.468 24.9069 134.264 24.7798 134.092 24.6079C133.924 24.4325 133.791 24.2087 133.694 23.9365C133.601 23.6608 133.555 23.3296 133.555 22.9429V19.1885H135.102V22.9536C135.102 23.1255 135.121 23.2705 135.161 23.3887C135.204 23.5068 135.263 23.6035 135.338 23.6787C135.413 23.7539 135.501 23.8076 135.601 23.8398C135.705 23.8721 135.819 23.8882 135.945 23.8882C136.264 23.8882 136.514 23.8237 136.697 23.6948C136.883 23.5659 137.014 23.3905 137.089 23.1685C137.168 22.9429 137.207 22.6922 137.207 22.4165ZM139.517 22.1533V22.0405C139.517 21.6144 139.577 21.2223 139.699 20.8643C139.821 20.5026 139.998 20.1893 140.231 19.9243C140.464 19.6593 140.75 19.4535 141.09 19.3066C141.431 19.1562 141.821 19.0811 142.261 19.0811C142.702 19.0811 143.094 19.1562 143.438 19.3066C143.781 19.4535 144.069 19.6593 144.302 19.9243C144.539 20.1893 144.718 20.5026 144.839 20.8643C144.961 21.2223 145.022 21.6144 145.022 22.0405V22.1533C145.022 22.5758 144.961 22.9679 144.839 23.3296C144.718 23.6877 144.539 24.001 144.302 24.2695C144.069 24.5345 143.783 24.7404 143.443 24.8872C143.103 25.034 142.712 25.1074 142.272 25.1074C141.832 25.1074 141.439 25.034 141.096 24.8872C140.756 24.7404 140.467 24.5345 140.231 24.2695C139.998 24.001 139.821 23.6877 139.699 23.3296C139.577 22.9679 139.517 22.5758 139.517 22.1533ZM141.063 22.0405V22.1533C141.063 22.3968 141.085 22.6242 141.128 22.8354C141.171 23.0467 141.239 23.2329 141.332 23.394C141.429 23.5516 141.554 23.6751 141.708 23.7646C141.862 23.8542 142.05 23.8989 142.272 23.8989C142.487 23.8989 142.671 23.8542 142.825 23.7646C142.979 23.6751 143.103 23.5516 143.196 23.394C143.289 23.2329 143.357 23.0467 143.4 22.8354C143.446 22.6242 143.47 22.3968 143.47 22.1533V22.0405C143.47 21.8042 143.446 21.5822 143.4 21.3745C143.357 21.1632 143.287 20.9771 143.19 20.8159C143.097 20.6512 142.974 20.5223 142.82 20.4292C142.666 20.3361 142.48 20.2896 142.261 20.2896C142.043 20.2896 141.857 20.3361 141.703 20.4292C141.552 20.5223 141.429 20.6512 141.332 20.8159C141.239 20.9771 141.171 21.1632 141.128 21.3745C141.085 21.5822 141.063 21.8042 141.063 22.0405ZM148.819 19.1885V20.2842H145.436V19.1885H148.819ZM146.273 17.7544H147.82V23.249C147.82 23.4173 147.842 23.5462 147.885 23.6357C147.931 23.7253 147.999 23.7879 148.089 23.8237C148.178 23.856 148.291 23.8721 148.427 23.8721C148.524 23.8721 148.61 23.8685 148.685 23.8613C148.764 23.8506 148.83 23.8398 148.884 23.8291L148.889 24.9678C148.757 25.0107 148.613 25.0448 148.459 25.0698C148.306 25.0949 148.135 25.1074 147.949 25.1074C147.609 25.1074 147.312 25.0519 147.058 24.9409C146.807 24.8263 146.614 24.6437 146.478 24.3931C146.341 24.1424 146.273 23.813 146.273 23.4048V17.7544ZM152.837 23.6895V21.1006C152.837 20.9144 152.806 20.755 152.746 20.6226C152.685 20.4865 152.59 20.3809 152.461 20.3057C152.336 20.2305 152.173 20.1929 151.972 20.1929C151.8 20.1929 151.652 20.2233 151.526 20.2842C151.401 20.3415 151.304 20.4256 151.236 20.5366C151.168 20.644 151.134 20.7712 151.134 20.918H149.587C149.587 20.6709 149.645 20.4364 149.759 20.2144C149.874 19.9924 150.04 19.7972 150.259 19.6289C150.477 19.457 150.737 19.3228 151.038 19.2261C151.342 19.1294 151.682 19.0811 152.058 19.0811C152.509 19.0811 152.91 19.1562 153.261 19.3066C153.612 19.457 153.888 19.6826 154.088 19.9834C154.292 20.2842 154.395 20.6602 154.395 21.1113V23.5981C154.395 23.9168 154.414 24.1782 154.454 24.3823C154.493 24.5828 154.55 24.7583 154.625 24.9087V25H153.062C152.987 24.8424 152.93 24.6455 152.891 24.4092C152.855 24.1693 152.837 23.9294 152.837 23.6895ZM153.041 21.4604L153.052 22.3359H152.187C151.983 22.3359 151.806 22.3592 151.655 22.4058C151.505 22.4523 151.381 22.5186 151.285 22.6045C151.188 22.6868 151.116 22.7835 151.07 22.8945C151.027 23.0055 151.005 23.1273 151.005 23.2598C151.005 23.3923 151.036 23.5122 151.097 23.6196C151.158 23.7235 151.245 23.8058 151.36 23.8667C151.474 23.924 151.609 23.9526 151.763 23.9526C151.995 23.9526 152.198 23.9061 152.37 23.813C152.542 23.7199 152.674 23.6053 152.767 23.4692C152.864 23.3332 152.914 23.2043 152.917 23.0825L153.326 23.7378C153.268 23.8846 153.19 24.0368 153.089 24.1943C152.993 24.3519 152.869 24.5005 152.719 24.6401C152.568 24.7762 152.388 24.889 152.176 24.9785C151.965 25.0645 151.714 25.1074 151.424 25.1074C151.056 25.1074 150.721 25.034 150.42 24.8872C150.123 24.7368 149.886 24.5309 149.711 24.2695C149.539 24.0046 149.453 23.7038 149.453 23.3672C149.453 23.0628 149.51 22.7925 149.625 22.5562C149.74 22.3198 149.908 22.1211 150.13 21.96C150.355 21.7952 150.637 21.6717 150.973 21.5894C151.31 21.5034 151.7 21.4604 152.144 21.4604H153.041ZM158.434 19.1885V20.2842H155.05V19.1885H158.434ZM155.888 17.7544H157.435V23.249C157.435 23.4173 157.456 23.5462 157.499 23.6357C157.546 23.7253 157.614 23.7879 157.703 23.8237C157.793 23.856 157.905 23.8721 158.042 23.8721C158.138 23.8721 158.224 23.8685 158.299 23.8613C158.378 23.8506 158.444 23.8398 158.498 23.8291L158.503 24.9678C158.371 25.0107 158.228 25.0448 158.074 25.0698C157.92 25.0949 157.75 25.1074 157.563 25.1074C157.223 25.1074 156.926 25.0519 156.672 24.9409C156.421 24.8263 156.228 24.6437 156.092 24.3931C155.956 24.1424 155.888 23.813 155.888 23.4048V17.7544ZM160.947 19.1885V25H159.395V19.1885H160.947ZM159.298 17.6738C159.298 17.4482 159.377 17.262 159.535 17.1152C159.692 16.9684 159.903 16.895 160.168 16.895C160.43 16.895 160.639 16.9684 160.797 17.1152C160.958 17.262 161.039 17.4482 161.039 17.6738C161.039 17.8994 160.958 18.0856 160.797 18.2324C160.639 18.3792 160.43 18.4526 160.168 18.4526C159.903 18.4526 159.692 18.3792 159.535 18.2324C159.377 18.0856 159.298 17.8994 159.298 17.6738ZM161.979 22.1533V22.0405C161.979 21.6144 162.039 21.2223 162.161 20.8643C162.283 20.5026 162.46 20.1893 162.693 19.9243C162.926 19.6593 163.212 19.4535 163.552 19.3066C163.892 19.1562 164.283 19.0811 164.723 19.0811C165.164 19.0811 165.556 19.1562 165.899 19.3066C166.243 19.4535 166.531 19.6593 166.764 19.9243C167 20.1893 167.18 20.5026 167.301 20.8643C167.423 21.2223 167.484 21.6144 167.484 22.0405V22.1533C167.484 22.5758 167.423 22.9679 167.301 23.3296C167.18 23.6877 167 24.001 166.764 24.2695C166.531 24.5345 166.245 24.7404 165.905 24.8872C165.565 25.034 165.174 25.1074 164.734 25.1074C164.293 25.1074 163.901 25.034 163.558 24.8872C163.217 24.7404 162.929 24.5345 162.693 24.2695C162.46 24.001 162.283 23.6877 162.161 23.3296C162.039 22.9679 161.979 22.5758 161.979 22.1533ZM163.525 22.0405V22.1533C163.525 22.3968 163.547 22.6242 163.59 22.8354C163.633 23.0467 163.701 23.2329 163.794 23.394C163.891 23.5516 164.016 23.6751 164.17 23.7646C164.324 23.8542 164.512 23.8989 164.734 23.8989C164.949 23.8989 165.133 23.8542 165.287 23.7646C165.441 23.6751 165.565 23.5516 165.658 23.394C165.751 23.2329 165.819 23.0467 165.862 22.8354C165.908 22.6242 165.932 22.3968 165.932 22.1533V22.0405C165.932 21.8042 165.908 21.5822 165.862 21.3745C165.819 21.1632 165.749 20.9771 165.652 20.8159C165.559 20.6512 165.436 20.5223 165.282 20.4292C165.128 20.3361 164.942 20.2896 164.723 20.2896C164.505 20.2896 164.319 20.3361 164.165 20.4292C164.014 20.5223 163.891 20.6512 163.794 20.8159C163.701 20.9771 163.633 21.1632 163.59 21.3745C163.547 21.5822 163.525 21.8042 163.525 22.0405ZM169.949 20.4292V25H168.402V19.1885H169.853L169.949 20.4292ZM169.724 21.8901H169.305C169.305 21.4604 169.36 21.0737 169.471 20.73C169.582 20.3826 169.738 20.0872 169.938 19.8438C170.139 19.5967 170.377 19.4087 170.653 19.2798C170.932 19.1473 171.244 19.0811 171.587 19.0811C171.86 19.0811 172.108 19.1204 172.334 19.1992C172.56 19.278 172.753 19.4033 172.914 19.5752C173.079 19.7471 173.204 19.9744 173.29 20.2573C173.38 20.5402 173.424 20.8857 173.424 21.2939V25H171.867V21.2886C171.867 21.0308 171.831 20.8302 171.759 20.687C171.688 20.5438 171.582 20.4435 171.442 20.3862C171.306 20.3254 171.138 20.2949 170.938 20.2949C170.73 20.2949 170.549 20.3361 170.395 20.4185C170.245 20.5008 170.119 20.6154 170.019 20.7622C169.922 20.9054 169.849 21.0737 169.799 21.2671C169.749 21.4604 169.724 21.6681 169.724 21.8901Z" fill="white"/>
</g>
<path d="M110.73 55.4648V56.0039C110.73 56.6445 110.65 57.2188 110.49 57.7266C110.33 58.2344 110.1 58.666 109.799 59.0215C109.498 59.377 109.137 59.6484 108.715 59.8359C108.297 60.0234 107.828 60.1172 107.309 60.1172C106.805 60.1172 106.342 60.0234 105.92 59.8359C105.502 59.6484 105.139 59.377 104.83 59.0215C104.525 58.666 104.289 58.2344 104.121 57.7266C103.953 57.2188 103.869 56.6445 103.869 56.0039V55.4648C103.869 54.8242 103.951 54.252 104.115 53.748C104.283 53.2402 104.52 52.8086 104.824 52.4531C105.129 52.0938 105.49 51.8203 105.908 51.6328C106.33 51.4453 106.793 51.3516 107.297 51.3516C107.816 51.3516 108.285 51.4453 108.703 51.6328C109.125 51.8203 109.486 52.0938 109.787 52.4531C110.092 52.8086 110.324 53.2402 110.484 53.748C110.648 54.252 110.73 54.8242 110.73 55.4648ZM109.611 56.0039V55.4531C109.611 54.9453 109.559 54.4961 109.453 54.1055C109.352 53.7148 109.201 53.3867 109.002 53.1211C108.803 52.8555 108.559 52.6543 108.27 52.5176C107.984 52.3809 107.66 52.3125 107.297 52.3125C106.945 52.3125 106.627 52.3809 106.342 52.5176C106.061 52.6543 105.818 52.8555 105.615 53.1211C105.416 53.3867 105.262 53.7148 105.152 54.1055C105.043 54.4961 104.988 54.9453 104.988 55.4531V56.0039C104.988 56.5156 105.043 56.9688 105.152 57.3633C105.262 57.7539 105.418 58.084 105.621 58.3535C105.828 58.6191 106.072 58.8203 106.354 58.957C106.639 59.0938 106.957 59.1621 107.309 59.1621C107.676 59.1621 108.002 59.0938 108.287 58.957C108.572 58.8203 108.812 58.6191 109.008 58.3535C109.207 58.084 109.357 57.7539 109.459 57.3633C109.561 56.9688 109.611 56.5156 109.611 56.0039ZM112.424 51.4688H115.248C115.889 51.4688 116.43 51.5664 116.871 51.7617C117.316 51.957 117.654 52.2461 117.885 52.6289C118.119 53.0078 118.236 53.4746 118.236 54.0293C118.236 54.4199 118.156 54.7773 117.996 55.1016C117.84 55.4219 117.613 55.6953 117.316 55.9219C117.023 56.1445 116.672 56.3105 116.262 56.4199L115.945 56.543H113.291L113.279 55.623H115.283C115.689 55.623 116.027 55.5527 116.297 55.4121C116.566 55.2676 116.77 55.0742 116.906 54.832C117.043 54.5898 117.111 54.3223 117.111 54.0293C117.111 53.7012 117.047 53.4141 116.918 53.168C116.789 52.9219 116.586 52.7324 116.309 52.5996C116.035 52.4629 115.682 52.3945 115.248 52.3945H113.555V60H112.424V51.4688ZM117.41 60L115.336 56.1328L116.514 56.127L118.617 59.9297V60H117.41Z" fill="#353945"/>
<g filter="url(#filter1_d_15_10603)">
<rect x="8" y="72" width="206" height="37" rx="2.8545" fill="#223F79" shape-rendering="crispEdges"/>
<path d="M22.7598 90.5679H20.751L20.7402 89.4614H22.4268C22.724 89.4614 22.9674 89.4238 23.1572 89.3486C23.347 89.2699 23.4884 89.1571 23.5815 89.0103C23.6782 88.8599 23.7266 88.6772 23.7266 88.4624C23.7266 88.2189 23.68 88.022 23.5869 87.8716C23.4974 87.7212 23.356 87.612 23.1626 87.5439C22.9728 87.4759 22.7275 87.4419 22.4268 87.4419H21.3096V94H19.6982V86.1797H22.4268C22.8815 86.1797 23.2879 86.2227 23.646 86.3086C24.0076 86.3945 24.3138 86.5252 24.5645 86.7007C24.8151 86.8761 25.0067 87.0981 25.1392 87.3667C25.2716 87.6317 25.3379 87.9468 25.3379 88.312C25.3379 88.6343 25.2645 88.9315 25.1177 89.2036C24.9744 89.4757 24.7471 89.6978 24.4355 89.8696C24.1276 90.0415 23.7248 90.1364 23.2271 90.1543L22.7598 90.5679ZM22.6899 94H20.3105L20.939 92.7432H22.6899C22.9728 92.7432 23.2038 92.6984 23.3828 92.6089C23.5618 92.5158 23.6943 92.3905 23.7803 92.2329C23.8662 92.0754 23.9092 91.8945 23.9092 91.6904C23.9092 91.4613 23.8698 91.2625 23.791 91.0942C23.7158 90.9259 23.5941 90.797 23.4258 90.7075C23.2575 90.6144 23.0355 90.5679 22.7598 90.5679H21.2075L21.2183 89.4614H23.1519L23.5225 89.8965C23.9987 89.8893 24.3818 89.9735 24.6719 90.1489C24.9655 90.3208 25.1785 90.5446 25.311 90.8203C25.4471 91.096 25.5151 91.3914 25.5151 91.7065C25.5151 92.2078 25.4059 92.6304 25.1875 92.9741C24.9691 93.3143 24.6486 93.5703 24.2261 93.7422C23.8071 93.9141 23.2951 94 22.6899 94ZM30.0645 92.6089V88.1885H31.6113V94H30.1558L30.0645 92.6089ZM30.2363 91.4165L30.6929 91.4058C30.6929 91.7925 30.6481 92.1523 30.5586 92.4854C30.4691 92.8148 30.3348 93.1012 30.1558 93.3447C29.9767 93.5846 29.7511 93.7726 29.479 93.9087C29.2069 94.0412 28.8864 94.1074 28.5176 94.1074C28.2347 94.1074 27.9733 94.068 27.7334 93.9893C27.4971 93.9069 27.293 93.7798 27.1211 93.6079C26.9528 93.4325 26.8203 93.2087 26.7236 92.9365C26.6305 92.6608 26.584 92.3296 26.584 91.9429V88.1885H28.1309V91.9536C28.1309 92.1255 28.1506 92.2705 28.1899 92.3887C28.2329 92.5068 28.292 92.6035 28.3672 92.6787C28.4424 92.7539 28.5301 92.8076 28.6304 92.8398C28.7342 92.8721 28.8488 92.8882 28.9741 92.8882C29.2928 92.8882 29.5435 92.8237 29.7261 92.6948C29.9123 92.5659 30.043 92.3905 30.1182 92.1685C30.1969 91.9429 30.2363 91.6922 30.2363 91.4165ZM34.5171 93.3447L36.0586 88.1885H37.7183L35.3818 94.8755C35.3317 95.0223 35.2637 95.1799 35.1777 95.3481C35.0954 95.5164 34.9826 95.6758 34.8394 95.8262C34.6997 95.9801 34.5225 96.1055 34.3076 96.2021C34.0964 96.2988 33.8368 96.3472 33.5288 96.3472C33.382 96.3472 33.262 96.3382 33.1689 96.3203C33.0758 96.3024 32.9648 96.2773 32.8359 96.2451V95.1118C32.8753 95.1118 32.9165 95.1118 32.9595 95.1118C33.0024 95.1154 33.0436 95.1172 33.083 95.1172C33.2871 95.1172 33.4536 95.0939 33.5825 95.0474C33.7114 95.0008 33.8153 94.9292 33.894 94.8325C33.9728 94.7394 34.0355 94.6177 34.082 94.4673L34.5171 93.3447ZM33.8726 88.1885L35.1348 92.3994L35.355 94.0376L34.3022 94.1504L32.2129 88.1885H33.8726ZM42.5898 89.4292V94H41.043V88.1885H42.4932L42.5898 89.4292ZM42.3643 90.8901H41.9453C41.9453 90.4604 42.0008 90.0737 42.1118 89.73C42.2228 89.3826 42.3786 89.0872 42.5791 88.8438C42.7796 88.5967 43.0177 88.4087 43.2935 88.2798C43.5728 88.1473 43.8843 88.0811 44.228 88.0811C44.5002 88.0811 44.749 88.1204 44.9746 88.1992C45.2002 88.278 45.3936 88.4033 45.5547 88.5752C45.7194 88.7471 45.8447 88.9744 45.9307 89.2573C46.0202 89.5402 46.0649 89.8857 46.0649 90.2939V94H44.5073V90.2886C44.5073 90.0308 44.4715 89.8302 44.3999 89.687C44.3283 89.5438 44.2227 89.4435 44.083 89.3862C43.9469 89.3254 43.7786 89.2949 43.5781 89.2949C43.3704 89.2949 43.1896 89.3361 43.0356 89.4185C42.8853 89.5008 42.7599 89.6154 42.6597 89.7622C42.563 89.9054 42.4896 90.0737 42.4395 90.2671C42.3893 90.4604 42.3643 90.6681 42.3643 90.8901ZM46.9941 91.1533V91.0405C46.9941 90.6144 47.055 90.2223 47.1768 89.8643C47.2985 89.5026 47.4757 89.1893 47.7085 88.9243C47.9412 88.6593 48.2277 88.4535 48.5679 88.3066C48.908 88.1562 49.2983 88.0811 49.7388 88.0811C50.1792 88.0811 50.5713 88.1562 50.915 88.3066C51.2588 88.4535 51.547 88.6593 51.7798 88.9243C52.0161 89.1893 52.1951 89.5026 52.3169 89.8643C52.4386 90.2223 52.4995 90.6144 52.4995 91.0405V91.1533C52.4995 91.5758 52.4386 91.9679 52.3169 92.3296C52.1951 92.6877 52.0161 93.001 51.7798 93.2695C51.547 93.5345 51.2606 93.7404 50.9204 93.8872C50.5802 94.034 50.1899 94.1074 49.7495 94.1074C49.3091 94.1074 48.917 94.034 48.5732 93.8872C48.2331 93.7404 47.9448 93.5345 47.7085 93.2695C47.4757 93.001 47.2985 92.6877 47.1768 92.3296C47.055 91.9679 46.9941 91.5758 46.9941 91.1533ZM48.541 91.0405V91.1533C48.541 91.3968 48.5625 91.6242 48.6055 91.8354C48.6484 92.0467 48.7165 92.2329 48.8096 92.394C48.9062 92.5516 49.0316 92.6751 49.1855 92.7646C49.3395 92.8542 49.5275 92.8989 49.7495 92.8989C49.9644 92.8989 50.1488 92.8542 50.3027 92.7646C50.4567 92.6751 50.5802 92.5516 50.6733 92.394C50.7664 92.2329 50.8345 92.0467 50.8774 91.8354C50.924 91.6242 50.9473 91.3968 50.9473 91.1533V91.0405C50.9473 90.8042 50.924 90.5822 50.8774 90.3745C50.8345 90.1632 50.7646 89.9771 50.668 89.8159C50.5749 89.6512 50.4513 89.5223 50.2974 89.4292C50.1434 89.3361 49.9572 89.2896 49.7388 89.2896C49.5203 89.2896 49.3341 89.3361 49.1802 89.4292C49.0298 89.5223 48.9062 89.6512 48.8096 89.8159C48.7165 89.9771 48.6484 90.1632 48.6055 90.3745C48.5625 90.5822 48.541 90.8042 48.541 91.0405ZM55.1099 92.4961L56.3184 88.1885H57.3013L56.9844 89.8804L55.7759 94H54.9541L55.1099 92.4961ZM54.4976 88.1885L55.3623 92.4907L55.4429 94H54.4761L53.0044 88.1885H54.4976ZM58.4077 92.4209L59.251 88.1885H60.7495L59.2778 94H58.3164L58.4077 92.4209ZM57.4355 88.1885L58.6387 92.4639L58.8052 94H57.978L56.7695 89.8857L56.4634 88.1885H57.4355ZM64.2676 85.75H65.8145V92.668L65.6587 94H64.2676V85.75ZM69.4937 91.0352V91.1479C69.4937 91.5812 69.4471 91.9787 69.354 92.3403C69.2645 92.702 69.1248 93.0153 68.9351 93.2803C68.7453 93.5417 68.509 93.7458 68.2261 93.8926C67.9468 94.0358 67.6174 94.1074 67.2378 94.1074C66.8833 94.1074 66.5754 94.0358 66.314 93.8926C66.0562 93.7493 65.8395 93.547 65.6641 93.2856C65.4886 93.0243 65.3472 92.7181 65.2397 92.3672C65.1323 92.0163 65.0518 91.6331 64.998 91.2178V90.9707C65.0518 90.5553 65.1323 90.1722 65.2397 89.8213C65.3472 89.4704 65.4886 89.1642 65.6641 88.9028C65.8395 88.6414 66.0562 88.4391 66.314 88.2959C66.5718 88.1527 66.8761 88.0811 67.2271 88.0811C67.6102 88.0811 67.9432 88.1545 68.2261 88.3013C68.5125 88.4445 68.7489 88.6486 68.9351 88.9136C69.1248 89.175 69.2645 89.4865 69.354 89.8481C69.4471 90.2062 69.4937 90.6019 69.4937 91.0352ZM67.9468 91.1479V91.0352C67.9468 90.7988 67.9289 90.5768 67.8931 90.3691C67.8608 90.1579 67.8035 89.9735 67.7212 89.8159C67.6388 89.6548 67.526 89.5277 67.3828 89.4346C67.2432 89.3415 67.0623 89.2949 66.8403 89.2949C66.6291 89.2949 66.45 89.3307 66.3032 89.4023C66.1564 89.474 66.0347 89.5742 65.938 89.7031C65.8449 89.832 65.7751 89.986 65.7285 90.165C65.682 90.3405 65.6533 90.5339 65.6426 90.7451V91.4487C65.6533 91.7316 65.6999 91.9823 65.7822 92.2007C65.8682 92.4155 65.9971 92.5856 66.1689 92.7109C66.3444 92.8327 66.5718 92.8936 66.8511 92.8936C67.0695 92.8936 67.2503 92.8506 67.3936 92.7646C67.5368 92.6787 67.6478 92.557 67.7266 92.3994C67.8089 92.2419 67.8662 92.0575 67.8984 91.8462C67.9307 91.6313 67.9468 91.3986 67.9468 91.1479ZM72.1147 93.3447L73.6562 88.1885H75.3159L72.9795 94.8755C72.9294 95.0223 72.8613 95.1799 72.7754 95.3481C72.693 95.5164 72.5802 95.6758 72.437 95.8262C72.2974 95.9801 72.1201 96.1055 71.9053 96.2021C71.694 96.2988 71.4344 96.3472 71.1265 96.3472C70.9797 96.3472 70.8597 96.3382 70.7666 96.3203C70.6735 96.3024 70.5625 96.2773 70.4336 96.2451V95.1118C70.473 95.1118 70.5142 95.1118 70.5571 95.1118C70.6001 95.1154 70.6413 95.1172 70.6807 95.1172C70.8848 95.1172 71.0513 95.0939 71.1802 95.0474C71.3091 95.0008 71.4129 94.9292 71.4917 94.8325C71.5705 94.7394 71.6331 94.6177 71.6797 94.4673L72.1147 93.3447ZM71.4702 88.1885L72.7324 92.3994L72.9526 94.0376L71.8999 94.1504L69.8105 88.1885H71.4702ZM81.8149 91.2124H79.8223V89.9556H81.8149C82.1229 89.9556 82.3735 89.9054 82.5669 89.8052C82.7603 89.7013 82.9017 89.5581 82.9912 89.3755C83.0807 89.1929 83.1255 88.987 83.1255 88.7578C83.1255 88.5251 83.0807 88.3084 82.9912 88.1079C82.9017 87.9074 82.7603 87.7463 82.5669 87.6245C82.3735 87.5028 82.1229 87.4419 81.8149 87.4419H80.3809V94H78.7695V86.1797H81.8149C82.4272 86.1797 82.9518 86.2907 83.3887 86.5127C83.8291 86.7311 84.1657 87.0337 84.3984 87.4204C84.6312 87.8071 84.7476 88.2493 84.7476 88.7471C84.7476 89.252 84.6312 89.6888 84.3984 90.0576C84.1657 90.4264 83.8291 90.7111 83.3887 90.9116C82.9518 91.1121 82.4272 91.2124 81.8149 91.2124ZM88.835 92.6895V90.1006C88.835 89.9144 88.8045 89.755 88.7437 89.6226C88.6828 89.4865 88.5879 89.3809 88.459 89.3057C88.3337 89.2305 88.1707 89.1929 87.9702 89.1929C87.7983 89.1929 87.6497 89.2233 87.5244 89.2842C87.3991 89.3415 87.3024 89.4256 87.2344 89.5366C87.1663 89.644 87.1323 89.7712 87.1323 89.918H85.5854C85.5854 89.6709 85.6427 89.4364 85.7573 89.2144C85.8719 88.9924 86.0384 88.7972 86.2568 88.6289C86.4753 88.457 86.7349 88.3228 87.0356 88.2261C87.34 88.1294 87.6802 88.0811 88.0562 88.0811C88.5073 88.0811 88.9084 88.1562 89.2593 88.3066C89.6102 88.457 89.8859 88.6826 90.0864 88.9834C90.2905 89.2842 90.3926 89.6602 90.3926 90.1113V92.5981C90.3926 92.9168 90.4123 93.1782 90.4517 93.3823C90.491 93.5828 90.5483 93.7583 90.6235 93.9087V94H89.0605C88.9854 93.8424 88.9281 93.6455 88.8887 93.4092C88.8529 93.1693 88.835 92.9294 88.835 92.6895ZM89.0391 90.4604L89.0498 91.3359H88.1851C87.981 91.3359 87.8037 91.3592 87.6533 91.4058C87.5029 91.4523 87.3794 91.5186 87.2827 91.6045C87.186 91.6868 87.1144 91.7835 87.0679 91.8945C87.0249 92.0055 87.0034 92.1273 87.0034 92.2598C87.0034 92.3923 87.0339 92.5122 87.0947 92.6196C87.1556 92.7235 87.2433 92.8058 87.3579 92.8667C87.4725 92.924 87.6068 92.9526 87.7607 92.9526C87.9935 92.9526 88.1958 92.9061 88.3677 92.813C88.5396 92.7199 88.672 92.6053 88.7651 92.4692C88.8618 92.3332 88.9119 92.2043 88.9155 92.0825L89.3237 92.7378C89.2664 92.8846 89.1877 93.0368 89.0874 93.1943C88.9907 93.3519 88.8672 93.5005 88.7168 93.6401C88.5664 93.7762 88.3856 93.889 88.1743 93.9785C87.9631 94.0645 87.7124 94.1074 87.4224 94.1074C87.0535 94.1074 86.7188 94.034 86.418 93.8872C86.1208 93.7368 85.8844 93.5309 85.709 93.2695C85.5371 93.0046 85.4512 92.7038 85.4512 92.3672C85.4512 92.0628 85.5085 91.7925 85.623 91.5562C85.7376 91.3198 85.9059 91.1211 86.1279 90.96C86.3535 90.7952 86.6346 90.6717 86.9712 90.5894C87.3078 90.5034 87.6981 90.4604 88.1421 90.4604H89.0391ZM93.2231 93.3447L94.7646 88.1885H96.4243L94.0879 94.8755C94.0378 95.0223 93.9697 95.1799 93.8838 95.3481C93.8014 95.5164 93.6886 95.6758 93.5454 95.8262C93.4058 95.9801 93.2285 96.1055 93.0137 96.2021C92.8024 96.2988 92.5428 96.3472 92.2349 96.3472C92.0881 96.3472 91.9681 96.3382 91.875 96.3203C91.7819 96.3024 91.6709 96.2773 91.542 96.2451V95.1118C91.5814 95.1118 91.6226 95.1118 91.6655 95.1118C91.7085 95.1154 91.7497 95.1172 91.7891 95.1172C91.9932 95.1172 92.1597 95.0939 92.2886 95.0474C92.4175 95.0008 92.5213 94.9292 92.6001 94.8325C92.6789 94.7394 92.7415 94.6177 92.7881 94.4673L93.2231 93.3447ZM92.5786 88.1885L93.8408 92.3994L94.061 94.0376L93.0083 94.1504L90.9189 88.1885H92.5786ZM98.5889 89.3057V96.2344H97.042V88.1885H98.4761L98.5889 89.3057ZM102.268 91.0298V91.1426C102.268 91.5651 102.218 91.9572 102.118 92.3188C102.021 92.6805 101.878 92.9956 101.688 93.2642C101.498 93.5291 101.262 93.7368 100.979 93.8872C100.7 94.034 100.377 94.1074 100.012 94.1074C99.6577 94.1074 99.3498 94.0358 99.0884 93.8926C98.827 93.7493 98.6068 93.5488 98.4277 93.291C98.2523 93.0296 98.1108 92.7271 98.0034 92.3833C97.896 92.0396 97.8136 91.6707 97.7563 91.2769V90.9814C97.8136 90.5589 97.896 90.1722 98.0034 89.8213C98.1108 89.4668 98.2523 89.1606 98.4277 88.9028C98.6068 88.6414 98.8252 88.4391 99.083 88.2959C99.3444 88.1527 99.6506 88.0811 100.001 88.0811C100.37 88.0811 100.694 88.1509 100.974 88.2905C101.257 88.4302 101.493 88.6307 101.683 88.8921C101.876 89.1535 102.021 89.465 102.118 89.8267C102.218 90.1883 102.268 90.5894 102.268 91.0298ZM100.716 91.1426V91.0298C100.716 90.7827 100.694 90.5553 100.651 90.3477C100.612 90.1364 100.548 89.952 100.458 89.7944C100.372 89.6369 100.257 89.5151 100.114 89.4292C99.9746 89.3397 99.8045 89.2949 99.604 89.2949C99.3927 89.2949 99.2119 89.3289 99.0615 89.397C98.9147 89.465 98.7948 89.5635 98.7017 89.6924C98.6086 89.8213 98.5387 89.9753 98.4922 90.1543C98.4456 90.3333 98.417 90.5356 98.4062 90.7612V91.5078C98.4242 91.7728 98.4743 92.0109 98.5566 92.2222C98.639 92.4299 98.7661 92.5946 98.938 92.7163C99.1099 92.8381 99.3354 92.8989 99.6147 92.8989C99.8188 92.8989 99.9907 92.8542 100.13 92.7646C100.27 92.6715 100.383 92.5444 100.469 92.3833C100.558 92.2222 100.621 92.036 100.657 91.8247C100.696 91.6134 100.716 91.3861 100.716 91.1426ZM106.366 92.6895V90.1006C106.366 89.9144 106.336 89.755 106.275 89.6226C106.214 89.4865 106.119 89.3809 105.99 89.3057C105.865 89.2305 105.702 89.1929 105.501 89.1929C105.33 89.1929 105.181 89.2233 105.056 89.2842C104.93 89.3415 104.834 89.4256 104.766 89.5366C104.698 89.644 104.664 89.7712 104.664 89.918H103.117C103.117 89.6709 103.174 89.4364 103.289 89.2144C103.403 88.9924 103.57 88.7972 103.788 88.6289C104.007 88.457 104.266 88.3228 104.567 88.2261C104.871 88.1294 105.211 88.0811 105.587 88.0811C106.039 88.0811 106.44 88.1562 106.791 88.3066C107.141 88.457 107.417 88.6826 107.618 88.9834C107.822 89.2842 107.924 89.6602 107.924 90.1113V92.5981C107.924 92.9168 107.944 93.1782 107.983 93.3823C108.022 93.5828 108.08 93.7583 108.155 93.9087V94H106.592C106.517 93.8424 106.459 93.6455 106.42 93.4092C106.384 93.1693 106.366 92.9294 106.366 92.6895ZM106.57 90.4604L106.581 91.3359H105.716C105.512 91.3359 105.335 91.3592 105.185 91.4058C105.034 91.4523 104.911 91.5186 104.814 91.6045C104.717 91.6868 104.646 91.7835 104.599 91.8945C104.556 92.0055 104.535 92.1273 104.535 92.2598C104.535 92.3923 104.565 92.5122 104.626 92.6196C104.687 92.7235 104.775 92.8058 104.889 92.8667C105.004 92.924 105.138 92.9526 105.292 92.9526C105.525 92.9526 105.727 92.9061 105.899 92.813C106.071 92.7199 106.203 92.6053 106.296 92.4692C106.393 92.3332 106.443 92.2043 106.447 92.0825L106.855 92.7378C106.798 92.8846 106.719 93.0368 106.619 93.1943C106.522 93.3519 106.398 93.5005 106.248 93.6401C106.098 93.7762 105.917 93.889 105.706 93.9785C105.494 94.0645 105.244 94.1074 104.954 94.1074C104.585 94.1074 104.25 94.034 103.949 93.8872C103.652 93.7368 103.416 93.5309 103.24 93.2695C103.068 93.0046 102.982 92.7038 102.982 92.3672C102.982 92.0628 103.04 91.7925 103.154 91.5562C103.269 91.3198 103.437 91.1211 103.659 90.96C103.885 90.7952 104.166 90.6717 104.502 90.5894C104.839 90.5034 105.229 90.4604 105.673 90.4604H106.57ZM110.749 85.75V94H109.197V85.75H110.749ZM113.494 92.6948L113.488 93.7314C113.488 94.1289 113.388 94.5299 113.188 94.9346C112.991 95.3392 112.74 95.6704 112.436 95.9282L111.63 95.5146C111.719 95.3499 111.807 95.1852 111.893 95.0205C111.979 94.8558 112.051 94.675 112.108 94.478C112.165 94.2811 112.194 94.0573 112.194 93.8066V92.6948H113.494ZM119.456 92.7593L121.013 86.1797H121.883L122.082 87.2754L120.422 94H119.488L119.456 92.7593ZM118.655 86.1797L119.944 92.7593L119.837 94H118.795L117.06 86.1797H118.655ZM123.452 92.7324L124.725 86.1797H126.32L124.59 94H123.548L123.452 92.7324ZM122.372 86.1797L123.94 92.7861L123.897 94H122.963L121.292 87.27L121.507 86.1797H122.372ZM128.731 88.1885V94H127.179V88.1885H128.731ZM127.083 86.6738C127.083 86.4482 127.161 86.262 127.319 86.1152C127.476 85.9684 127.688 85.895 127.953 85.895C128.214 85.895 128.424 85.9684 128.581 86.1152C128.742 86.262 128.823 86.4482 128.823 86.6738C128.823 86.8994 128.742 87.0856 128.581 87.2324C128.424 87.3792 128.214 87.4526 127.953 87.4526C127.688 87.4526 127.476 87.3792 127.319 87.2324C127.161 87.0856 127.083 86.8994 127.083 86.6738ZM133.152 92.394C133.152 92.283 133.12 92.1828 133.055 92.0933C132.991 92.0037 132.871 91.9214 132.695 91.8462C132.523 91.7674 132.275 91.6958 131.949 91.6313C131.655 91.5669 131.381 91.4863 131.127 91.3896C130.876 91.2894 130.658 91.1694 130.472 91.0298C130.289 90.8901 130.146 90.7254 130.042 90.5356C129.938 90.3423 129.886 90.1221 129.886 89.875C129.886 89.6315 129.938 89.4023 130.042 89.1875C130.149 88.9727 130.302 88.7829 130.499 88.6182C130.699 88.4499 130.943 88.3192 131.229 88.2261C131.519 88.1294 131.845 88.0811 132.207 88.0811C132.711 88.0811 133.145 88.1616 133.506 88.3228C133.872 88.4839 134.151 88.7059 134.344 88.9888C134.541 89.2681 134.64 89.5868 134.64 89.9448H133.093C133.093 89.7944 133.061 89.6602 132.996 89.542C132.935 89.4202 132.839 89.3254 132.706 89.2573C132.577 89.1857 132.409 89.1499 132.201 89.1499C132.029 89.1499 131.881 89.1803 131.755 89.2412C131.63 89.2985 131.533 89.3773 131.465 89.4775C131.401 89.5742 131.369 89.6816 131.369 89.7998C131.369 89.8893 131.387 89.9699 131.422 90.0415C131.462 90.1095 131.524 90.1722 131.61 90.2295C131.696 90.2868 131.807 90.3405 131.943 90.3906C132.083 90.4372 132.255 90.4801 132.459 90.5195C132.878 90.6055 133.252 90.7183 133.582 90.8579C133.911 90.994 134.172 91.1802 134.366 91.4165C134.559 91.6493 134.656 91.9554 134.656 92.335C134.656 92.5928 134.598 92.8291 134.484 93.0439C134.369 93.2588 134.205 93.4468 133.99 93.6079C133.775 93.7655 133.517 93.889 133.216 93.9785C132.919 94.0645 132.584 94.1074 132.212 94.1074C131.671 94.1074 131.213 94.0107 130.837 93.8174C130.465 93.624 130.182 93.3787 129.988 93.0815C129.799 92.7808 129.704 92.4728 129.704 92.1577H131.17C131.177 92.369 131.231 92.5391 131.331 92.668C131.435 92.7969 131.566 92.89 131.723 92.9473C131.884 93.0046 132.058 93.0332 132.244 93.0332C132.445 93.0332 132.611 93.0063 132.744 92.9526C132.876 92.8953 132.976 92.8201 133.044 92.7271C133.116 92.6304 133.152 92.5194 133.152 92.394ZM138.335 94.1074C137.884 94.1074 137.479 94.0358 137.121 93.8926C136.763 93.7458 136.459 93.5435 136.208 93.2856C135.961 93.0278 135.771 92.7288 135.639 92.3887C135.506 92.0449 135.44 91.6797 135.44 91.293V91.0781C135.44 90.6377 135.503 90.2349 135.628 89.8696C135.753 89.5044 135.932 89.1875 136.165 88.9189C136.401 88.6504 136.688 88.4445 137.024 88.3013C137.361 88.1545 137.741 88.0811 138.163 88.0811C138.575 88.0811 138.94 88.1491 139.259 88.2852C139.577 88.4212 139.844 88.6146 140.059 88.8652C140.278 89.1159 140.442 89.4167 140.553 89.7676C140.664 90.1149 140.72 90.5016 140.72 90.9277V91.5723H136.101V90.541H139.2V90.4229C139.2 90.208 139.16 90.0164 139.082 89.8481C139.006 89.6763 138.892 89.5402 138.738 89.4399C138.584 89.3397 138.387 89.2896 138.147 89.2896C137.943 89.2896 137.767 89.3343 137.621 89.4238C137.474 89.5133 137.354 89.6387 137.261 89.7998C137.171 89.9609 137.103 90.1507 137.057 90.3691C137.014 90.584 136.992 90.8203 136.992 91.0781V91.293C136.992 91.5257 137.024 91.7406 137.089 91.9375C137.157 92.1344 137.252 92.3045 137.374 92.4478C137.499 92.591 137.649 92.702 137.825 92.7808C138.004 92.8595 138.206 92.8989 138.432 92.8989C138.711 92.8989 138.971 92.8452 139.21 92.7378C139.454 92.6268 139.663 92.4603 139.839 92.2383L140.591 93.0547C140.469 93.2301 140.303 93.3984 140.091 93.5596C139.884 93.7207 139.633 93.8532 139.339 93.957C139.046 94.0573 138.711 94.1074 138.335 94.1074ZM143.067 92.6948L143.062 93.7314C143.062 94.1289 142.961 94.5299 142.761 94.9346C142.564 95.3392 142.313 95.6704 142.009 95.9282L141.203 95.5146C141.293 95.3499 141.38 95.1852 141.466 95.0205C141.552 94.8558 141.624 94.675 141.681 94.478C141.738 94.2811 141.767 94.0573 141.767 93.8066V92.6948H143.067ZM151.677 91.4058H153.283C153.25 91.9321 153.105 92.3994 152.848 92.8076C152.593 93.2158 152.237 93.5345 151.779 93.7637C151.324 93.9928 150.776 94.1074 150.135 94.1074C149.634 94.1074 149.185 94.0215 148.787 93.8496C148.39 93.6742 148.049 93.4235 147.767 93.0977C147.487 92.7718 147.274 92.3779 147.127 91.916C146.981 91.4541 146.907 90.9367 146.907 90.3638V89.8213C146.907 89.2484 146.982 88.731 147.133 88.269C147.287 87.8035 147.505 87.4079 147.788 87.082C148.075 86.7562 148.417 86.5055 148.814 86.3301C149.211 86.1546 149.655 86.0669 150.146 86.0669C150.798 86.0669 151.347 86.1851 151.795 86.4214C152.246 86.6577 152.595 86.9836 152.842 87.3989C153.093 87.8143 153.243 88.2869 153.293 88.8169H151.682C151.664 88.5018 151.602 88.235 151.494 88.0166C151.387 87.7946 151.224 87.6281 151.005 87.5171C150.791 87.4025 150.504 87.3452 150.146 87.3452C149.877 87.3452 149.643 87.3953 149.442 87.4956C149.242 87.5959 149.074 87.748 148.938 87.9521C148.801 88.1562 148.699 88.4141 148.631 88.7256C148.567 89.0335 148.535 89.3952 148.535 89.8105V90.3638C148.535 90.7684 148.565 91.1247 148.626 91.4326C148.687 91.737 148.78 91.9948 148.905 92.2061C149.034 92.4137 149.199 92.5713 149.399 92.6787C149.604 92.7826 149.849 92.8345 150.135 92.8345C150.472 92.8345 150.749 92.7808 150.968 92.6733C151.186 92.5659 151.353 92.4066 151.467 92.1953C151.585 91.984 151.655 91.7209 151.677 91.4058ZM155.791 89.4561V94H154.244V88.1885H155.7L155.791 89.4561ZM157.542 88.1509L157.515 89.585C157.44 89.5742 157.349 89.5653 157.241 89.5581C157.137 89.5474 157.042 89.542 156.957 89.542C156.738 89.542 156.548 89.5706 156.387 89.6279C156.23 89.6816 156.097 89.7622 155.99 89.8696C155.886 89.9771 155.807 90.1077 155.753 90.2617C155.703 90.4157 155.675 90.5911 155.667 90.7881L155.356 90.6914C155.356 90.3154 155.394 89.9699 155.469 89.6548C155.544 89.3361 155.653 89.0586 155.796 88.8223C155.943 88.5859 156.122 88.4033 156.333 88.2744C156.545 88.1455 156.786 88.0811 157.059 88.0811C157.145 88.0811 157.232 88.0882 157.322 88.1025C157.411 88.1133 157.485 88.1294 157.542 88.1509ZM160.84 94.1074C160.389 94.1074 159.984 94.0358 159.626 93.8926C159.268 93.7458 158.964 93.5435 158.713 93.2856C158.466 93.0278 158.276 92.7288 158.144 92.3887C158.011 92.0449 157.945 91.6797 157.945 91.293V91.0781C157.945 90.6377 158.007 90.2349 158.133 89.8696C158.258 89.5044 158.437 89.1875 158.67 88.9189C158.906 88.6504 159.193 88.4445 159.529 88.3013C159.866 88.1545 160.245 88.0811 160.668 88.0811C161.08 88.0811 161.445 88.1491 161.764 88.2852C162.082 88.4212 162.349 88.6146 162.564 88.8652C162.782 89.1159 162.947 89.4167 163.058 89.7676C163.169 90.1149 163.225 90.5016 163.225 90.9277V91.5723H158.605V90.541H161.705V90.4229C161.705 90.208 161.665 90.0164 161.586 89.8481C161.511 89.6763 161.397 89.5402 161.243 89.4399C161.089 89.3397 160.892 89.2896 160.652 89.2896C160.448 89.2896 160.272 89.3343 160.125 89.4238C159.979 89.5133 159.859 89.6387 159.766 89.7998C159.676 89.9609 159.608 90.1507 159.562 90.3691C159.519 90.584 159.497 90.8203 159.497 91.0781V91.293C159.497 91.5257 159.529 91.7406 159.594 91.9375C159.662 92.1344 159.757 92.3045 159.878 92.4478C160.004 92.591 160.154 92.702 160.33 92.7808C160.509 92.8595 160.711 92.8989 160.937 92.8989C161.216 92.8989 161.475 92.8452 161.715 92.7378C161.959 92.6268 162.168 92.4603 162.344 92.2383L163.096 93.0547C162.974 93.2301 162.807 93.3984 162.596 93.5596C162.389 93.7207 162.138 93.8532 161.844 93.957C161.551 94.0573 161.216 94.1074 160.84 94.1074ZM167.538 92.7324V85.75H169.095V94H167.693L167.538 92.7324ZM163.864 91.1641V91.0513C163.864 90.6073 163.914 90.2044 164.014 89.8428C164.114 89.4775 164.261 89.1642 164.455 88.9028C164.648 88.6414 164.886 88.4391 165.169 88.2959C165.452 88.1527 165.774 88.0811 166.136 88.0811C166.476 88.0811 166.773 88.1527 167.027 88.2959C167.285 88.4391 167.504 88.6432 167.683 88.9082C167.865 89.1696 168.012 89.4793 168.123 89.8374C168.234 90.1919 168.315 90.5804 168.365 91.0029V91.25C168.315 91.6546 168.234 92.0306 168.123 92.3779C168.012 92.7253 167.865 93.0296 167.683 93.291C167.504 93.5488 167.285 93.7493 167.027 93.8926C166.77 94.0358 166.469 94.1074 166.125 94.1074C165.763 94.1074 165.441 94.034 165.158 93.8872C164.879 93.7404 164.643 93.5345 164.449 93.2695C164.259 93.0046 164.114 92.693 164.014 92.335C163.914 91.9769 163.864 91.5866 163.864 91.1641ZM165.411 91.0513V91.1641C165.411 91.404 165.429 91.6278 165.464 91.8354C165.504 92.0431 165.566 92.2275 165.652 92.3887C165.742 92.5462 165.856 92.6698 165.996 92.7593C166.139 92.8452 166.313 92.8882 166.517 92.8882C166.782 92.8882 167 92.8291 167.172 92.7109C167.344 92.5892 167.475 92.4227 167.564 92.2114C167.658 92.0002 167.711 91.7567 167.726 91.481V90.7773C167.715 90.5518 167.683 90.3494 167.629 90.1704C167.579 89.9878 167.504 89.832 167.403 89.7031C167.307 89.5742 167.185 89.474 167.038 89.4023C166.895 89.3307 166.725 89.2949 166.528 89.2949C166.327 89.2949 166.155 89.3415 166.012 89.4346C165.869 89.5241 165.753 89.6476 165.663 89.8052C165.577 89.9627 165.513 90.1489 165.47 90.3638C165.43 90.575 165.411 90.8042 165.411 91.0513ZM171.937 88.1885V94H170.384V88.1885H171.937ZM170.288 86.6738C170.288 86.4482 170.366 86.262 170.524 86.1152C170.681 85.9684 170.893 85.895 171.158 85.895C171.419 85.895 171.629 85.9684 171.786 86.1152C171.947 86.262 172.028 86.4482 172.028 86.6738C172.028 86.8994 171.947 87.0856 171.786 87.2324C171.629 87.3792 171.419 87.4526 171.158 87.4526C170.893 87.4526 170.681 87.3792 170.524 87.2324C170.366 87.0856 170.288 86.8994 170.288 86.6738ZM176.062 88.1885V89.2842H172.678V88.1885H176.062ZM173.516 86.7544H175.062V92.249C175.062 92.4173 175.084 92.5462 175.127 92.6357C175.174 92.7253 175.242 92.7879 175.331 92.8237C175.421 92.856 175.533 92.8721 175.669 92.8721C175.766 92.8721 175.852 92.8685 175.927 92.8613C176.006 92.8506 176.072 92.8398 176.126 92.8291L176.131 93.9678C175.999 94.0107 175.856 94.0448 175.702 94.0698C175.548 94.0949 175.378 94.1074 175.191 94.1074C174.851 94.1074 174.554 94.0519 174.3 93.9409C174.049 93.8263 173.856 93.6437 173.72 93.3931C173.584 93.1424 173.516 92.813 173.516 92.4048V86.7544ZM184.312 91.4058H185.917C185.885 91.9321 185.74 92.3994 185.482 92.8076C185.228 93.2158 184.872 93.5345 184.414 93.7637C183.959 93.9928 183.411 94.1074 182.77 94.1074C182.269 94.1074 181.819 94.0215 181.422 93.8496C181.024 93.6742 180.684 93.4235 180.401 93.0977C180.122 92.7718 179.909 92.3779 179.762 91.916C179.615 91.4541 179.542 90.9367 179.542 90.3638V89.8213C179.542 89.2484 179.617 88.731 179.768 88.269C179.922 87.8035 180.14 87.4079 180.423 87.082C180.709 86.7562 181.051 86.5055 181.449 86.3301C181.846 86.1546 182.29 86.0669 182.781 86.0669C183.432 86.0669 183.982 86.1851 184.43 86.4214C184.881 86.6577 185.23 86.9836 185.477 87.3989C185.728 87.8143 185.878 88.2869 185.928 88.8169H184.317C184.299 88.5018 184.236 88.235 184.129 88.0166C184.021 87.7946 183.859 87.6281 183.64 87.5171C183.425 87.4025 183.139 87.3452 182.781 87.3452C182.512 87.3452 182.278 87.3953 182.077 87.4956C181.877 87.5959 181.708 87.748 181.572 87.9521C181.436 88.1562 181.334 88.4141 181.266 88.7256C181.202 89.0335 181.169 89.3952 181.169 89.8105V90.3638C181.169 90.7684 181.2 91.1247 181.261 91.4326C181.322 91.737 181.415 91.9948 181.54 92.2061C181.669 92.4137 181.834 92.5713 182.034 92.6787C182.238 92.7826 182.484 92.8345 182.77 92.8345C183.107 92.8345 183.384 92.7808 183.603 92.6733C183.821 92.5659 183.987 92.4066 184.102 92.1953C184.22 91.984 184.29 91.7209 184.312 91.4058ZM190.016 92.6895V90.1006C190.016 89.9144 189.985 89.755 189.924 89.6226C189.863 89.4865 189.769 89.3809 189.64 89.3057C189.514 89.2305 189.351 89.1929 189.151 89.1929C188.979 89.1929 188.83 89.2233 188.705 89.2842C188.58 89.3415 188.483 89.4256 188.415 89.5366C188.347 89.644 188.313 89.7712 188.313 89.918H186.766C186.766 89.6709 186.823 89.4364 186.938 89.2144C187.053 88.9924 187.219 88.7972 187.438 88.6289C187.656 88.457 187.916 88.3228 188.216 88.2261C188.521 88.1294 188.861 88.0811 189.237 88.0811C189.688 88.0811 190.089 88.1562 190.44 88.3066C190.791 88.457 191.067 88.6826 191.267 88.9834C191.471 89.2842 191.573 89.6602 191.573 90.1113V92.5981C191.573 92.9168 191.593 93.1782 191.632 93.3823C191.672 93.5828 191.729 93.7583 191.804 93.9087V94H190.241C190.166 93.8424 190.109 93.6455 190.069 93.4092C190.034 93.1693 190.016 92.9294 190.016 92.6895ZM190.22 90.4604L190.23 91.3359H189.366C189.162 91.3359 188.984 91.3592 188.834 91.4058C188.684 91.4523 188.56 91.5186 188.463 91.6045C188.367 91.6868 188.295 91.7835 188.249 91.8945C188.206 92.0055 188.184 92.1273 188.184 92.2598C188.184 92.3923 188.215 92.5122 188.275 92.6196C188.336 92.7235 188.424 92.8058 188.539 92.8667C188.653 92.924 188.787 92.9526 188.941 92.9526C189.174 92.9526 189.376 92.9061 189.548 92.813C189.72 92.7199 189.853 92.6053 189.946 92.4692C190.042 92.3332 190.093 92.2043 190.096 92.0825L190.504 92.7378C190.447 92.8846 190.368 93.0368 190.268 93.1943C190.171 93.3519 190.048 93.5005 189.897 93.6401C189.747 93.7762 189.566 93.889 189.355 93.9785C189.144 94.0645 188.893 94.1074 188.603 94.1074C188.234 94.1074 187.899 94.034 187.599 93.8872C187.301 93.7368 187.065 93.5309 186.89 93.2695C186.718 93.0046 186.632 92.7038 186.632 92.3672C186.632 92.0628 186.689 91.7925 186.804 91.5562C186.918 91.3198 187.087 91.1211 187.309 90.96C187.534 90.7952 187.815 90.6717 188.152 90.5894C188.488 90.5034 188.879 90.4604 189.323 90.4604H190.22ZM194.312 89.4561V94H192.766V88.1885H194.221L194.312 89.4561ZM196.063 88.1509L196.037 89.585C195.961 89.5742 195.87 89.5653 195.763 89.5581C195.659 89.5474 195.564 89.542 195.478 89.542C195.26 89.542 195.07 89.5706 194.909 89.6279C194.751 89.6816 194.619 89.7622 194.511 89.8696C194.407 89.9771 194.329 90.1077 194.275 90.2617C194.225 90.4157 194.196 90.5911 194.189 90.7881L193.877 90.6914C193.877 90.3154 193.915 89.9699 193.99 89.6548C194.065 89.3361 194.175 89.0586 194.318 88.8223C194.465 88.5859 194.644 88.4033 194.855 88.2744C195.066 88.1455 195.308 88.0811 195.58 88.0811C195.666 88.0811 195.754 88.0882 195.843 88.1025C195.933 88.1133 196.006 88.1294 196.063 88.1509ZM200.119 92.7324V85.75H201.676V94H200.274L200.119 92.7324ZM196.445 91.1641V91.0513C196.445 90.6073 196.495 90.2044 196.595 89.8428C196.695 89.4775 196.842 89.1642 197.036 88.9028C197.229 88.6414 197.467 88.4391 197.75 88.2959C198.033 88.1527 198.355 88.0811 198.717 88.0811C199.057 88.0811 199.354 88.1527 199.608 88.2959C199.866 88.4391 200.085 88.6432 200.264 88.9082C200.446 89.1696 200.593 89.4793 200.704 89.8374C200.815 90.1919 200.896 90.5804 200.946 91.0029V91.25C200.896 91.6546 200.815 92.0306 200.704 92.3779C200.593 92.7253 200.446 93.0296 200.264 93.291C200.085 93.5488 199.866 93.7493 199.608 93.8926C199.351 94.0358 199.05 94.1074 198.706 94.1074C198.344 94.1074 198.022 94.034 197.739 93.8872C197.46 93.7404 197.224 93.5345 197.03 93.2695C196.84 93.0046 196.695 92.693 196.595 92.335C196.495 91.9769 196.445 91.5866 196.445 91.1641ZM197.992 91.0513V91.1641C197.992 91.404 198.01 91.6278 198.045 91.8354C198.085 92.0431 198.147 92.2275 198.233 92.3887C198.323 92.5462 198.438 92.6698 198.577 92.7593C198.72 92.8452 198.894 92.8882 199.098 92.8882C199.363 92.8882 199.582 92.8291 199.753 92.7109C199.925 92.5892 200.056 92.4227 200.146 92.2114C200.239 92.0002 200.292 91.7567 200.307 91.481V90.7773C200.296 90.5518 200.264 90.3494 200.21 90.1704C200.16 89.9878 200.085 89.832 199.984 89.7031C199.888 89.5742 199.766 89.474 199.619 89.4023C199.476 89.3307 199.306 89.2949 199.109 89.2949C198.908 89.2949 198.736 89.3415 198.593 89.4346C198.45 89.5241 198.334 89.6476 198.244 89.8052C198.158 89.9627 198.094 90.1489 198.051 90.3638C198.011 90.575 197.992 90.8042 197.992 91.0513Z" fill="white"/>
</g>
<path d="M58.3008 116.469H61.125C61.7656 116.469 62.3066 116.566 62.748 116.762C63.1934 116.957 63.5312 117.246 63.7617 117.629C63.9961 118.008 64.1133 118.475 64.1133 119.029C64.1133 119.42 64.0332 119.777 63.873 120.102C63.7168 120.422 63.4902 120.695 63.1934 120.922C62.9004 121.145 62.5488 121.311 62.1387 121.42L61.8223 121.543H59.168L59.1562 120.623H61.1602C61.5664 120.623 61.9043 120.553 62.1738 120.412C62.4434 120.268 62.6465 120.074 62.7832 119.832C62.9199 119.59 62.9883 119.322 62.9883 119.029C62.9883 118.701 62.9238 118.414 62.7949 118.168C62.666 117.922 62.4629 117.732 62.1855 117.6C61.9121 117.463 61.5586 117.395 61.125 117.395H59.4316V125H58.3008V116.469ZM63.2871 125L61.2129 121.133L62.3906 121.127L64.4941 124.93V125H63.2871ZM68.1621 125.117C67.7207 125.117 67.3203 125.043 66.9609 124.895C66.6055 124.742 66.2988 124.529 66.041 124.256C65.7871 123.982 65.5918 123.658 65.4551 123.283C65.3184 122.908 65.25 122.498 65.25 122.053V121.807C65.25 121.291 65.3262 120.832 65.4785 120.43C65.6309 120.023 65.8379 119.68 66.0996 119.398C66.3613 119.117 66.6582 118.904 66.9902 118.76C67.3223 118.615 67.666 118.543 68.0215 118.543C68.4746 118.543 68.8652 118.621 69.1934 118.777C69.5254 118.934 69.7969 119.152 70.0078 119.434C70.2188 119.711 70.375 120.039 70.4766 120.418C70.5781 120.793 70.6289 121.203 70.6289 121.648V122.135H65.8945V121.25H69.5449V121.168C69.5293 120.887 69.4707 120.613 69.3691 120.348C69.2715 120.082 69.1152 119.863 68.9004 119.691C68.6855 119.52 68.3926 119.434 68.0215 119.434C67.7754 119.434 67.5488 119.486 67.3418 119.592C67.1348 119.693 66.957 119.846 66.8086 120.049C66.6602 120.252 66.5449 120.5 66.4629 120.793C66.3809 121.086 66.3398 121.424 66.3398 121.807V122.053C66.3398 122.354 66.3809 122.637 66.4629 122.902C66.5488 123.164 66.6719 123.395 66.832 123.594C66.9961 123.793 67.1934 123.949 67.4238 124.062C67.6582 124.176 67.9238 124.232 68.2207 124.232C68.6035 124.232 68.9277 124.154 69.1934 123.998C69.459 123.842 69.6914 123.633 69.8906 123.371L70.5469 123.893C70.4102 124.1 70.2363 124.297 70.0254 124.484C69.8145 124.672 69.5547 124.824 69.2461 124.941C68.9414 125.059 68.5801 125.117 68.1621 125.117ZM74.4316 124.227C74.6895 124.227 74.9277 124.174 75.1465 124.068C75.3652 123.963 75.5449 123.818 75.6855 123.635C75.8262 123.447 75.9062 123.234 75.9258 122.996H76.957C76.9375 123.371 76.8105 123.721 76.5762 124.045C76.3457 124.365 76.043 124.625 75.668 124.824C75.293 125.02 74.8809 125.117 74.4316 125.117C73.9551 125.117 73.5391 125.033 73.1836 124.865C72.832 124.697 72.5391 124.467 72.3047 124.174C72.0742 123.881 71.9004 123.545 71.7832 123.166C71.6699 122.783 71.6133 122.379 71.6133 121.953V121.707C71.6133 121.281 71.6699 120.879 71.7832 120.5C71.9004 120.117 72.0742 119.779 72.3047 119.486C72.5391 119.193 72.832 118.963 73.1836 118.795C73.5391 118.627 73.9551 118.543 74.4316 118.543C74.9277 118.543 75.3613 118.645 75.7324 118.848C76.1035 119.047 76.3945 119.32 76.6055 119.668C76.8203 120.012 76.9375 120.402 76.957 120.84H75.9258C75.9062 120.578 75.832 120.342 75.7031 120.131C75.5781 119.92 75.4062 119.752 75.1875 119.627C74.9727 119.498 74.7207 119.434 74.4316 119.434C74.0996 119.434 73.8203 119.5 73.5938 119.633C73.3711 119.762 73.1934 119.938 73.0605 120.16C72.9316 120.379 72.8379 120.623 72.7793 120.893C72.7246 121.158 72.6973 121.43 72.6973 121.707V121.953C72.6973 122.23 72.7246 122.504 72.7793 122.773C72.834 123.043 72.9258 123.287 73.0547 123.506C73.1875 123.725 73.3652 123.9 73.5879 124.033C73.8145 124.162 74.0957 124.227 74.4316 124.227ZM80.8066 125.117C80.3652 125.117 79.9648 125.043 79.6055 124.895C79.25 124.742 78.9434 124.529 78.6855 124.256C78.4316 123.982 78.2363 123.658 78.0996 123.283C77.9629 122.908 77.8945 122.498 77.8945 122.053V121.807C77.8945 121.291 77.9707 120.832 78.123 120.43C78.2754 120.023 78.4824 119.68 78.7441 119.398C79.0059 119.117 79.3027 118.904 79.6348 118.76C79.9668 118.615 80.3105 118.543 80.666 118.543C81.1191 118.543 81.5098 118.621 81.8379 118.777C82.1699 118.934 82.4414 119.152 82.6523 119.434C82.8633 119.711 83.0195 120.039 83.1211 120.418C83.2227 120.793 83.2734 121.203 83.2734 121.648V122.135H78.5391V121.25H82.1895V121.168C82.1738 120.887 82.1152 120.613 82.0137 120.348C81.916 120.082 81.7598 119.863 81.5449 119.691C81.3301 119.52 81.0371 119.434 80.666 119.434C80.4199 119.434 80.1934 119.486 79.9863 119.592C79.7793 119.693 79.6016 119.846 79.4531 120.049C79.3047 120.252 79.1895 120.5 79.1074 120.793C79.0254 121.086 78.9844 121.424 78.9844 121.807V122.053C78.9844 122.354 79.0254 122.637 79.1074 122.902C79.1934 123.164 79.3164 123.395 79.4766 123.594C79.6406 123.793 79.8379 123.949 80.0684 124.062C80.3027 124.176 80.5684 124.232 80.8652 124.232C81.248 124.232 81.5723 124.154 81.8379 123.998C82.1035 123.842 82.3359 123.633 82.5352 123.371L83.1914 123.893C83.0547 124.1 82.8809 124.297 82.6699 124.484C82.459 124.672 82.1992 124.824 81.8906 124.941C81.5859 125.059 81.2246 125.117 80.8066 125.117ZM85.7168 118.66V125H84.627V118.66H85.7168ZM84.5449 116.979C84.5449 116.803 84.5977 116.654 84.7031 116.533C84.8125 116.412 84.9727 116.352 85.1836 116.352C85.3906 116.352 85.5488 116.412 85.6582 116.533C85.7715 116.654 85.8281 116.803 85.8281 116.979C85.8281 117.146 85.7715 117.291 85.6582 117.412C85.5488 117.529 85.3906 117.588 85.1836 117.588C84.9727 117.588 84.8125 117.529 84.7031 117.412C84.5977 117.291 84.5449 117.146 84.5449 116.979ZM89.3848 124.021L91.1191 118.66H92.2266L89.9473 125H89.2207L89.3848 124.021ZM87.9375 118.66L89.7246 124.051L89.8477 125H89.1211L86.8242 118.66H87.9375ZM95.8184 125.117C95.377 125.117 94.9766 125.043 94.6172 124.895C94.2617 124.742 93.9551 124.529 93.6973 124.256C93.4434 123.982 93.248 123.658 93.1113 123.283C92.9746 122.908 92.9062 122.498 92.9062 122.053V121.807C92.9062 121.291 92.9824 120.832 93.1348 120.43C93.2871 120.023 93.4941 119.68 93.7559 119.398C94.0176 119.117 94.3145 118.904 94.6465 118.76C94.9785 118.615 95.3223 118.543 95.6777 118.543C96.1309 118.543 96.5215 118.621 96.8496 118.777C97.1816 118.934 97.4531 119.152 97.6641 119.434C97.875 119.711 98.0312 120.039 98.1328 120.418C98.2344 120.793 98.2852 121.203 98.2852 121.648V122.135H93.5508V121.25H97.2012V121.168C97.1855 120.887 97.127 120.613 97.0254 120.348C96.9277 120.082 96.7715 119.863 96.5566 119.691C96.3418 119.52 96.0488 119.434 95.6777 119.434C95.4316 119.434 95.2051 119.486 94.998 119.592C94.791 119.693 94.6133 119.846 94.4648 120.049C94.3164 120.252 94.2012 120.5 94.1191 120.793C94.0371 121.086 93.9961 121.424 93.9961 121.807V122.053C93.9961 122.354 94.0371 122.637 94.1191 122.902C94.2051 123.164 94.3281 123.395 94.4883 123.594C94.6523 123.793 94.8496 123.949 95.0801 124.062C95.3145 124.176 95.5801 124.232 95.877 124.232C96.2598 124.232 96.584 124.154 96.8496 123.998C97.1152 123.842 97.3477 123.633 97.5469 123.371L98.2031 123.893C98.0664 124.1 97.8926 124.297 97.6816 124.484C97.4707 124.672 97.2109 124.824 96.9023 124.941C96.5977 125.059 96.2363 125.117 95.8184 125.117ZM106.266 123.916V120.652C106.266 120.402 106.215 120.186 106.113 120.002C106.016 119.814 105.867 119.67 105.668 119.568C105.469 119.467 105.223 119.416 104.93 119.416C104.656 119.416 104.416 119.463 104.209 119.557C104.006 119.65 103.846 119.773 103.729 119.926C103.615 120.078 103.559 120.242 103.559 120.418H102.475C102.475 120.191 102.533 119.967 102.65 119.744C102.768 119.521 102.936 119.32 103.154 119.141C103.377 118.957 103.643 118.812 103.951 118.707C104.264 118.598 104.611 118.543 104.994 118.543C105.455 118.543 105.861 118.621 106.213 118.777C106.568 118.934 106.846 119.17 107.045 119.486C107.248 119.799 107.35 120.191 107.35 120.664V123.617C107.35 123.828 107.367 124.053 107.402 124.291C107.441 124.529 107.498 124.734 107.572 124.906V125H106.441C106.387 124.875 106.344 124.709 106.312 124.502C106.281 124.291 106.266 124.096 106.266 123.916ZM106.453 121.156L106.465 121.918H105.369C105.061 121.918 104.785 121.943 104.543 121.994C104.301 122.041 104.098 122.113 103.934 122.211C103.77 122.309 103.645 122.432 103.559 122.58C103.473 122.725 103.43 122.895 103.43 123.09C103.43 123.289 103.475 123.471 103.564 123.635C103.654 123.799 103.789 123.93 103.969 124.027C104.152 124.121 104.377 124.168 104.643 124.168C104.975 124.168 105.268 124.098 105.521 123.957C105.775 123.816 105.977 123.645 106.125 123.441C106.277 123.238 106.359 123.041 106.371 122.85L106.834 123.371C106.807 123.535 106.732 123.717 106.611 123.916C106.49 124.115 106.328 124.307 106.125 124.49C105.926 124.67 105.688 124.82 105.41 124.941C105.137 125.059 104.828 125.117 104.484 125.117C104.055 125.117 103.678 125.033 103.354 124.865C103.033 124.697 102.783 124.473 102.604 124.191C102.428 123.906 102.34 123.588 102.34 123.236C102.34 122.896 102.406 122.598 102.539 122.34C102.672 122.078 102.863 121.861 103.113 121.689C103.363 121.514 103.664 121.381 104.016 121.291C104.367 121.201 104.76 121.156 105.193 121.156H106.453ZM116.021 127.438V119.879L116.115 118.66H117.111V127.438H116.021ZM111.762 121.9V121.777C111.762 121.293 111.818 120.854 111.932 120.459C112.045 120.061 112.211 119.719 112.43 119.434C112.648 119.148 112.912 118.93 113.221 118.777C113.533 118.621 113.889 118.543 114.287 118.543C114.686 118.543 115.035 118.613 115.336 118.754C115.641 118.891 115.898 119.092 116.109 119.357C116.324 119.619 116.494 119.936 116.619 120.307C116.744 120.678 116.83 121.098 116.877 121.566V122.105C116.834 122.57 116.75 122.988 116.625 123.359C116.5 123.73 116.33 124.047 116.115 124.309C115.904 124.57 115.645 124.771 115.336 124.912C115.031 125.049 114.678 125.117 114.275 125.117C113.885 125.117 113.533 125.037 113.221 124.877C112.912 124.717 112.648 124.492 112.43 124.203C112.215 123.914 112.049 123.574 111.932 123.184C111.818 122.789 111.762 122.361 111.762 121.9ZM112.852 121.777V121.9C112.852 122.217 112.885 122.516 112.951 122.797C113.018 123.074 113.119 123.32 113.256 123.535C113.396 123.75 113.572 123.92 113.783 124.045C113.998 124.166 114.252 124.227 114.545 124.227C114.904 124.227 115.203 124.148 115.441 123.992C115.684 123.836 115.877 123.631 116.021 123.377C116.166 123.119 116.277 122.844 116.355 122.551V121.139C116.312 120.924 116.244 120.715 116.15 120.512C116.061 120.309 115.943 120.127 115.799 119.967C115.654 119.803 115.479 119.674 115.271 119.58C115.068 119.482 114.83 119.434 114.557 119.434C114.26 119.434 114.004 119.496 113.789 119.621C113.574 119.746 113.396 119.918 113.256 120.137C113.119 120.352 113.018 120.6 112.951 120.881C112.885 121.162 112.852 121.461 112.852 121.777ZM122.73 123.535V118.66H123.82V125H122.783L122.73 123.535ZM122.936 122.199L123.387 122.188C123.387 122.609 123.342 123 123.252 123.359C123.166 123.715 123.025 124.023 122.83 124.285C122.635 124.547 122.379 124.752 122.062 124.9C121.746 125.045 121.361 125.117 120.908 125.117C120.6 125.117 120.316 125.072 120.059 124.982C119.805 124.893 119.586 124.754 119.402 124.566C119.219 124.379 119.076 124.135 118.975 123.834C118.877 123.533 118.828 123.172 118.828 122.75V118.66H119.912V122.762C119.912 123.047 119.943 123.283 120.006 123.471C120.072 123.654 120.16 123.801 120.27 123.91C120.383 124.016 120.508 124.09 120.645 124.133C120.785 124.176 120.93 124.197 121.078 124.197C121.539 124.197 121.904 124.109 122.174 123.934C122.443 123.754 122.637 123.514 122.754 123.213C122.875 122.908 122.936 122.57 122.936 122.199ZM125.186 121.9V121.766C125.186 121.309 125.252 120.885 125.385 120.494C125.518 120.1 125.709 119.758 125.959 119.469C126.209 119.176 126.512 118.949 126.867 118.789C127.223 118.625 127.621 118.543 128.062 118.543C128.508 118.543 128.908 118.625 129.264 118.789C129.623 118.949 129.928 119.176 130.178 119.469C130.432 119.758 130.625 120.1 130.758 120.494C130.891 120.885 130.957 121.309 130.957 121.766V121.9C130.957 122.357 130.891 122.781 130.758 123.172C130.625 123.562 130.432 123.904 130.178 124.197C129.928 124.486 129.625 124.713 129.27 124.877C128.918 125.037 128.52 125.117 128.074 125.117C127.629 125.117 127.229 125.037 126.873 124.877C126.518 124.713 126.213 124.486 125.959 124.197C125.709 123.904 125.518 123.562 125.385 123.172C125.252 122.781 125.186 122.357 125.186 121.9ZM126.27 121.766V121.9C126.27 122.217 126.307 122.516 126.381 122.797C126.455 123.074 126.566 123.32 126.715 123.535C126.867 123.75 127.057 123.92 127.283 124.045C127.51 124.166 127.773 124.227 128.074 124.227C128.371 124.227 128.631 124.166 128.854 124.045C129.08 123.92 129.268 123.75 129.416 123.535C129.564 123.32 129.676 123.074 129.75 122.797C129.828 122.516 129.867 122.217 129.867 121.9V121.766C129.867 121.453 129.828 121.158 129.75 120.881C129.676 120.6 129.562 120.352 129.41 120.137C129.262 119.918 129.074 119.746 128.848 119.621C128.625 119.496 128.363 119.434 128.062 119.434C127.766 119.434 127.504 119.496 127.277 119.621C127.055 119.746 126.867 119.918 126.715 120.137C126.566 120.352 126.455 120.6 126.381 120.881C126.307 121.158 126.27 121.453 126.27 121.766ZM134.971 118.66V119.492H131.543V118.66H134.971ZM132.703 117.119H133.787V123.43C133.787 123.645 133.82 123.807 133.887 123.916C133.953 124.025 134.039 124.098 134.145 124.133C134.25 124.168 134.363 124.186 134.484 124.186C134.574 124.186 134.668 124.178 134.766 124.162C134.867 124.143 134.943 124.127 134.994 124.115L135 125C134.914 125.027 134.801 125.053 134.66 125.076C134.523 125.104 134.357 125.117 134.162 125.117C133.896 125.117 133.652 125.064 133.43 124.959C133.207 124.854 133.029 124.678 132.896 124.432C132.768 124.182 132.703 123.846 132.703 123.424V117.119ZM138.873 125.117C138.432 125.117 138.031 125.043 137.672 124.895C137.316 124.742 137.01 124.529 136.752 124.256C136.498 123.982 136.303 123.658 136.166 123.283C136.029 122.908 135.961 122.498 135.961 122.053V121.807C135.961 121.291 136.037 120.832 136.189 120.43C136.342 120.023 136.549 119.68 136.811 119.398C137.072 119.117 137.369 118.904 137.701 118.76C138.033 118.615 138.377 118.543 138.732 118.543C139.186 118.543 139.576 118.621 139.904 118.777C140.236 118.934 140.508 119.152 140.719 119.434C140.93 119.711 141.086 120.039 141.188 120.418C141.289 120.793 141.34 121.203 141.34 121.648V122.135H136.605V121.25H140.256V121.168C140.24 120.887 140.182 120.613 140.08 120.348C139.982 120.082 139.826 119.863 139.611 119.691C139.396 119.52 139.104 119.434 138.732 119.434C138.486 119.434 138.26 119.486 138.053 119.592C137.846 119.693 137.668 119.846 137.52 120.049C137.371 120.252 137.256 120.5 137.174 120.793C137.092 121.086 137.051 121.424 137.051 121.807V122.053C137.051 122.354 137.092 122.637 137.174 122.902C137.26 123.164 137.383 123.395 137.543 123.594C137.707 123.793 137.904 123.949 138.135 124.062C138.369 124.176 138.635 124.232 138.932 124.232C139.314 124.232 139.639 124.154 139.904 123.998C140.17 123.842 140.402 123.633 140.602 123.371L141.258 123.893C141.121 124.1 140.947 124.297 140.736 124.484C140.525 124.672 140.266 124.824 139.957 124.941C139.652 125.059 139.291 125.117 138.873 125.117ZM149.32 123.916V120.652C149.32 120.402 149.27 120.186 149.168 120.002C149.07 119.814 148.922 119.67 148.723 119.568C148.523 119.467 148.277 119.416 147.984 119.416C147.711 119.416 147.471 119.463 147.264 119.557C147.061 119.65 146.9 119.773 146.783 119.926C146.67 120.078 146.613 120.242 146.613 120.418H145.529C145.529 120.191 145.588 119.967 145.705 119.744C145.822 119.521 145.99 119.32 146.209 119.141C146.432 118.957 146.697 118.812 147.006 118.707C147.318 118.598 147.666 118.543 148.049 118.543C148.51 118.543 148.916 118.621 149.268 118.777C149.623 118.934 149.9 119.17 150.1 119.486C150.303 119.799 150.404 120.191 150.404 120.664V123.617C150.404 123.828 150.422 124.053 150.457 124.291C150.496 124.529 150.553 124.734 150.627 124.906V125H149.496C149.441 124.875 149.398 124.709 149.367 124.502C149.336 124.291 149.32 124.096 149.32 123.916ZM149.508 121.156L149.52 121.918H148.424C148.115 121.918 147.84 121.943 147.598 121.994C147.355 122.041 147.152 122.113 146.988 122.211C146.824 122.309 146.699 122.432 146.613 122.58C146.527 122.725 146.484 122.895 146.484 123.09C146.484 123.289 146.529 123.471 146.619 123.635C146.709 123.799 146.844 123.93 147.023 124.027C147.207 124.121 147.432 124.168 147.697 124.168C148.029 124.168 148.322 124.098 148.576 123.957C148.83 123.816 149.031 123.645 149.18 123.441C149.332 123.238 149.414 123.041 149.426 122.85L149.889 123.371C149.861 123.535 149.787 123.717 149.666 123.916C149.545 124.115 149.383 124.307 149.18 124.49C148.98 124.67 148.742 124.82 148.465 124.941C148.191 125.059 147.883 125.117 147.539 125.117C147.109 125.117 146.732 125.033 146.408 124.865C146.088 124.697 145.838 124.473 145.658 124.191C145.482 123.906 145.395 123.588 145.395 123.236C145.395 122.896 145.461 122.598 145.594 122.34C145.727 122.078 145.918 121.861 146.168 121.689C146.418 121.514 146.719 121.381 147.07 121.291C147.422 121.201 147.814 121.156 148.248 121.156H149.508ZM153.193 120.014V125H152.109V118.66H153.135L153.193 120.014ZM152.936 121.59L152.484 121.572C152.488 121.139 152.553 120.738 152.678 120.371C152.803 120 152.979 119.678 153.205 119.404C153.432 119.131 153.701 118.92 154.014 118.771C154.33 118.619 154.68 118.543 155.062 118.543C155.375 118.543 155.656 118.586 155.906 118.672C156.156 118.754 156.369 118.887 156.545 119.07C156.725 119.254 156.861 119.492 156.955 119.785C157.049 120.074 157.096 120.428 157.096 120.846V125H156.006V120.834C156.006 120.502 155.957 120.236 155.859 120.037C155.762 119.834 155.619 119.688 155.432 119.598C155.244 119.504 155.014 119.457 154.74 119.457C154.471 119.457 154.225 119.514 154.002 119.627C153.783 119.74 153.594 119.896 153.434 120.096C153.277 120.295 153.154 120.523 153.064 120.781C152.979 121.035 152.936 121.305 152.936 121.59ZM162.738 123.77V116H163.828V125H162.832L162.738 123.77ZM158.473 121.9V121.777C158.473 121.293 158.531 120.854 158.648 120.459C158.77 120.061 158.939 119.719 159.158 119.434C159.381 119.148 159.645 118.93 159.949 118.777C160.258 118.621 160.602 118.543 160.98 118.543C161.379 118.543 161.727 118.613 162.023 118.754C162.324 118.891 162.578 119.092 162.785 119.357C162.996 119.619 163.162 119.936 163.283 120.307C163.404 120.678 163.488 121.098 163.535 121.566V122.105C163.492 122.57 163.408 122.988 163.283 123.359C163.162 123.73 162.996 124.047 162.785 124.309C162.578 124.57 162.324 124.771 162.023 124.912C161.723 125.049 161.371 125.117 160.969 125.117C160.598 125.117 160.258 125.037 159.949 124.877C159.645 124.717 159.381 124.492 159.158 124.203C158.939 123.914 158.77 123.574 158.648 123.184C158.531 122.789 158.473 122.361 158.473 121.9ZM159.562 121.777V121.9C159.562 122.217 159.594 122.514 159.656 122.791C159.723 123.068 159.824 123.312 159.961 123.523C160.098 123.734 160.271 123.9 160.482 124.021C160.693 124.139 160.945 124.197 161.238 124.197C161.598 124.197 161.893 124.121 162.123 123.969C162.357 123.816 162.545 123.615 162.686 123.365C162.826 123.115 162.936 122.844 163.014 122.551V121.139C162.967 120.924 162.898 120.717 162.809 120.518C162.723 120.314 162.609 120.135 162.469 119.979C162.332 119.818 162.162 119.691 161.959 119.598C161.76 119.504 161.523 119.457 161.25 119.457C160.953 119.457 160.697 119.52 160.482 119.645C160.271 119.766 160.098 119.934 159.961 120.148C159.824 120.359 159.723 120.605 159.656 120.887C159.594 121.164 159.562 121.461 159.562 121.777ZM65.3262 140.227C65.584 140.227 65.8223 140.174 66.041 140.068C66.2598 139.963 66.4395 139.818 66.5801 139.635C66.7207 139.447 66.8008 139.234 66.8203 138.996H67.8516C67.832 139.371 67.7051 139.721 67.4707 140.045C67.2402 140.365 66.9375 140.625 66.5625 140.824C66.1875 141.02 65.7754 141.117 65.3262 141.117C64.8496 141.117 64.4336 141.033 64.0781 140.865C63.7266 140.697 63.4336 140.467 63.1992 140.174C62.9688 139.881 62.7949 139.545 62.6777 139.166C62.5645 138.783 62.5078 138.379 62.5078 137.953V137.707C62.5078 137.281 62.5645 136.879 62.6777 136.5C62.7949 136.117 62.9688 135.779 63.1992 135.486C63.4336 135.193 63.7266 134.963 64.0781 134.795C64.4336 134.627 64.8496 134.543 65.3262 134.543C65.8223 134.543 66.2559 134.645 66.627 134.848C66.998 135.047 67.2891 135.32 67.5 135.668C67.7148 136.012 67.832 136.402 67.8516 136.84H66.8203C66.8008 136.578 66.7266 136.342 66.5977 136.131C66.4727 135.92 66.3008 135.752 66.082 135.627C65.8672 135.498 65.6152 135.434 65.3262 135.434C64.9941 135.434 64.7148 135.5 64.4883 135.633C64.2656 135.762 64.0879 135.938 63.9551 136.16C63.8262 136.379 63.7324 136.623 63.6738 136.893C63.6191 137.158 63.5918 137.43 63.5918 137.707V137.953C63.5918 138.23 63.6191 138.504 63.6738 138.773C63.7285 139.043 63.8203 139.287 63.9492 139.506C64.082 139.725 64.2598 139.9 64.4824 140.033C64.709 140.162 64.9902 140.227 65.3262 140.227ZM68.7832 137.9V137.766C68.7832 137.309 68.8496 136.885 68.9824 136.494C69.1152 136.1 69.3066 135.758 69.5566 135.469C69.8066 135.176 70.1094 134.949 70.4648 134.789C70.8203 134.625 71.2188 134.543 71.6602 134.543C72.1055 134.543 72.5059 134.625 72.8613 134.789C73.2207 134.949 73.5254 135.176 73.7754 135.469C74.0293 135.758 74.2227 136.1 74.3555 136.494C74.4883 136.885 74.5547 137.309 74.5547 137.766V137.9C74.5547 138.357 74.4883 138.781 74.3555 139.172C74.2227 139.562 74.0293 139.904 73.7754 140.197C73.5254 140.486 73.2227 140.713 72.8672 140.877C72.5156 141.037 72.1172 141.117 71.6719 141.117C71.2266 141.117 70.8262 141.037 70.4707 140.877C70.1152 140.713 69.8105 140.486 69.5566 140.197C69.3066 139.904 69.1152 139.562 68.9824 139.172C68.8496 138.781 68.7832 138.357 68.7832 137.9ZM69.8672 137.766V137.9C69.8672 138.217 69.9043 138.516 69.9785 138.797C70.0527 139.074 70.1641 139.32 70.3125 139.535C70.4648 139.75 70.6543 139.92 70.8809 140.045C71.1074 140.166 71.3711 140.227 71.6719 140.227C71.9688 140.227 72.2285 140.166 72.4512 140.045C72.6777 139.92 72.8652 139.75 73.0137 139.535C73.1621 139.32 73.2734 139.074 73.3477 138.797C73.4258 138.516 73.4648 138.217 73.4648 137.9V137.766C73.4648 137.453 73.4258 137.158 73.3477 136.881C73.2734 136.6 73.1602 136.352 73.0078 136.137C72.8594 135.918 72.6719 135.746 72.4453 135.621C72.2227 135.496 71.9609 135.434 71.6602 135.434C71.3633 135.434 71.1016 135.496 70.875 135.621C70.6523 135.746 70.4648 135.918 70.3125 136.137C70.1641 136.352 70.0527 136.6 69.9785 136.881C69.9043 137.158 69.8672 137.453 69.8672 137.766ZM76.998 136.014V141H75.9141V134.66H76.9395L76.998 136.014ZM76.7402 137.59L76.2891 137.572C76.293 137.139 76.3574 136.738 76.4824 136.371C76.6074 136 76.7832 135.678 77.0098 135.404C77.2363 135.131 77.5059 134.92 77.8184 134.771C78.1348 134.619 78.4844 134.543 78.8672 134.543C79.1797 134.543 79.4609 134.586 79.7109 134.672C79.9609 134.754 80.1738 134.887 80.3496 135.07C80.5293 135.254 80.666 135.492 80.7598 135.785C80.8535 136.074 80.9004 136.428 80.9004 136.846V141H79.8105V136.834C79.8105 136.502 79.7617 136.236 79.6641 136.037C79.5664 135.834 79.4238 135.688 79.2363 135.598C79.0488 135.504 78.8184 135.457 78.5449 135.457C78.2754 135.457 78.0293 135.514 77.8066 135.627C77.5879 135.74 77.3984 135.896 77.2383 136.096C77.082 136.295 76.959 136.523 76.8691 136.781C76.7832 137.035 76.7402 137.305 76.7402 137.59ZM83.9941 141H82.9102V134.109C82.9102 133.629 83.0039 133.223 83.1914 132.891C83.3789 132.559 83.6465 132.307 83.9941 132.135C84.3418 131.963 84.7539 131.877 85.2305 131.877C85.5117 131.877 85.7871 131.912 86.0566 131.982C86.3262 132.049 86.6035 132.133 86.8887 132.234L86.707 133.148C86.5273 133.078 86.3184 133.012 86.0801 132.949C85.8457 132.883 85.5879 132.85 85.3066 132.85C84.8418 132.85 84.5059 132.955 84.2988 133.166C84.0957 133.373 83.9941 133.688 83.9941 134.109V141ZM85.2891 134.66V135.492H81.9082V134.66H85.2891ZM87.4219 134.66V141H86.3379V134.66H87.4219ZM90.2871 135.656V141H89.2031V134.66H90.2578L90.2871 135.656ZM92.2676 134.625L92.2617 135.633C92.1719 135.613 92.0859 135.602 92.0039 135.598C91.9258 135.59 91.8359 135.586 91.7344 135.586C91.4844 135.586 91.2637 135.625 91.0723 135.703C90.8809 135.781 90.7188 135.891 90.5859 136.031C90.4531 136.172 90.3477 136.34 90.2695 136.535C90.1953 136.727 90.1465 136.938 90.123 137.168L89.8184 137.344C89.8184 136.961 89.8555 136.602 89.9297 136.266C90.0078 135.93 90.127 135.633 90.2871 135.375C90.4473 135.113 90.6504 134.91 90.8965 134.766C91.1465 134.617 91.4434 134.543 91.7871 134.543C91.8652 134.543 91.9551 134.553 92.0566 134.572C92.1582 134.588 92.2285 134.605 92.2676 134.625ZM94.3477 135.92V141H93.2578V134.66H94.2891L94.3477 135.92ZM94.125 137.59L93.6211 137.572C93.625 137.139 93.6816 136.738 93.791 136.371C93.9004 136 94.0625 135.678 94.2773 135.404C94.4922 135.131 94.7598 134.92 95.0801 134.771C95.4004 134.619 95.7715 134.543 96.1934 134.543C96.4902 134.543 96.7637 134.586 97.0137 134.672C97.2637 134.754 97.4805 134.885 97.6641 135.064C97.8477 135.244 97.9902 135.475 98.0918 135.756C98.1934 136.037 98.2441 136.377 98.2441 136.775V141H97.1602V136.828C97.1602 136.496 97.1035 136.23 96.9902 136.031C96.8809 135.832 96.7246 135.688 96.5215 135.598C96.3184 135.504 96.0801 135.457 95.8066 135.457C95.4863 135.457 95.2188 135.514 95.0039 135.627C94.7891 135.74 94.6172 135.896 94.4883 136.096C94.3594 136.295 94.2656 136.523 94.207 136.781C94.1523 137.035 94.125 137.305 94.125 137.59ZM98.2324 136.992L97.5059 137.215C97.5098 136.867 97.5664 136.533 97.6758 136.213C97.7891 135.893 97.9512 135.607 98.1621 135.357C98.377 135.107 98.6406 134.91 98.9531 134.766C99.2656 134.617 99.623 134.543 100.025 134.543C100.365 134.543 100.666 134.588 100.928 134.678C101.193 134.768 101.416 134.906 101.596 135.094C101.779 135.277 101.918 135.514 102.012 135.803C102.105 136.092 102.152 136.436 102.152 136.834V141H101.062V136.822C101.062 136.467 101.006 136.191 100.893 135.996C100.783 135.797 100.627 135.658 100.424 135.58C100.225 135.498 99.9863 135.457 99.709 135.457C99.4707 135.457 99.2598 135.498 99.0762 135.58C98.8926 135.662 98.7383 135.775 98.6133 135.92C98.4883 136.061 98.3926 136.223 98.3262 136.406C98.2637 136.59 98.2324 136.785 98.2324 136.992ZM108.551 140.344L110.314 134.66H111.475L108.932 141.979C108.873 142.135 108.795 142.303 108.697 142.482C108.604 142.666 108.482 142.84 108.334 143.004C108.186 143.168 108.006 143.301 107.795 143.402C107.588 143.508 107.34 143.561 107.051 143.561C106.965 143.561 106.855 143.549 106.723 143.525C106.59 143.502 106.496 143.482 106.441 143.467L106.436 142.588C106.467 142.592 106.516 142.596 106.582 142.6C106.652 142.607 106.701 142.611 106.729 142.611C106.975 142.611 107.184 142.578 107.355 142.512C107.527 142.449 107.672 142.342 107.789 142.189C107.91 142.041 108.014 141.836 108.1 141.574L108.551 140.344ZM107.256 134.66L108.902 139.582L109.184 140.725L108.404 141.123L106.072 134.66H107.256ZM112.072 137.9V137.766C112.072 137.309 112.139 136.885 112.271 136.494C112.404 136.1 112.596 135.758 112.846 135.469C113.096 135.176 113.398 134.949 113.754 134.789C114.109 134.625 114.508 134.543 114.949 134.543C115.395 134.543 115.795 134.625 116.15 134.789C116.51 134.949 116.814 135.176 117.064 135.469C117.318 135.758 117.512 136.1 117.645 136.494C117.777 136.885 117.844 137.309 117.844 137.766V137.9C117.844 138.357 117.777 138.781 117.645 139.172C117.512 139.562 117.318 139.904 117.064 140.197C116.814 140.486 116.512 140.713 116.156 140.877C115.805 141.037 115.406 141.117 114.961 141.117C114.516 141.117 114.115 141.037 113.76 140.877C113.404 140.713 113.1 140.486 112.846 140.197C112.596 139.904 112.404 139.562 112.271 139.172C112.139 138.781 112.072 138.357 112.072 137.9ZM113.156 137.766V137.9C113.156 138.217 113.193 138.516 113.268 138.797C113.342 139.074 113.453 139.32 113.602 139.535C113.754 139.75 113.943 139.92 114.17 140.045C114.396 140.166 114.66 140.227 114.961 140.227C115.258 140.227 115.518 140.166 115.74 140.045C115.967 139.92 116.154 139.75 116.303 139.535C116.451 139.32 116.562 139.074 116.637 138.797C116.715 138.516 116.754 138.217 116.754 137.9V137.766C116.754 137.453 116.715 137.158 116.637 136.881C116.562 136.6 116.449 136.352 116.297 136.137C116.148 135.918 115.961 135.746 115.734 135.621C115.512 135.496 115.25 135.434 114.949 135.434C114.652 135.434 114.391 135.496 114.164 135.621C113.941 135.746 113.754 135.918 113.602 136.137C113.453 136.352 113.342 136.6 113.268 136.881C113.193 137.158 113.156 137.453 113.156 137.766ZM123.082 139.535V134.66H124.172V141H123.135L123.082 139.535ZM123.287 138.199L123.738 138.188C123.738 138.609 123.693 139 123.604 139.359C123.518 139.715 123.377 140.023 123.182 140.285C122.986 140.547 122.73 140.752 122.414 140.9C122.098 141.045 121.713 141.117 121.26 141.117C120.951 141.117 120.668 141.072 120.41 140.982C120.156 140.893 119.938 140.754 119.754 140.566C119.57 140.379 119.428 140.135 119.326 139.834C119.229 139.533 119.18 139.172 119.18 138.75V134.66H120.264V138.762C120.264 139.047 120.295 139.283 120.357 139.471C120.424 139.654 120.512 139.801 120.621 139.91C120.734 140.016 120.859 140.09 120.996 140.133C121.137 140.176 121.281 140.197 121.43 140.197C121.891 140.197 122.256 140.109 122.525 139.934C122.795 139.754 122.988 139.514 123.105 139.213C123.227 138.908 123.287 138.57 123.287 138.199ZM126.908 135.656V141H125.824V134.66H126.879L126.908 135.656ZM128.889 134.625L128.883 135.633C128.793 135.613 128.707 135.602 128.625 135.598C128.547 135.59 128.457 135.586 128.355 135.586C128.105 135.586 127.885 135.625 127.693 135.703C127.502 135.781 127.34 135.891 127.207 136.031C127.074 136.172 126.969 136.34 126.891 136.535C126.816 136.727 126.768 136.938 126.744 137.168L126.439 137.344C126.439 136.961 126.477 136.602 126.551 136.266C126.629 135.93 126.748 135.633 126.908 135.375C127.068 135.113 127.271 134.91 127.518 134.766C127.768 134.617 128.064 134.543 128.408 134.543C128.486 134.543 128.576 134.553 128.678 134.572C128.779 134.588 128.85 134.605 128.889 134.625ZM132.58 137.9V137.766C132.58 137.309 132.646 136.885 132.779 136.494C132.912 136.1 133.104 135.758 133.354 135.469C133.604 135.176 133.906 134.949 134.262 134.789C134.617 134.625 135.016 134.543 135.457 134.543C135.902 134.543 136.303 134.625 136.658 134.789C137.018 134.949 137.322 135.176 137.572 135.469C137.826 135.758 138.02 136.1 138.152 136.494C138.285 136.885 138.352 137.309 138.352 137.766V137.9C138.352 138.357 138.285 138.781 138.152 139.172C138.02 139.562 137.826 139.904 137.572 140.197C137.322 140.486 137.02 140.713 136.664 140.877C136.312 141.037 135.914 141.117 135.469 141.117C135.023 141.117 134.623 141.037 134.268 140.877C133.912 140.713 133.607 140.486 133.354 140.197C133.104 139.904 132.912 139.562 132.779 139.172C132.646 138.781 132.58 138.357 132.58 137.9ZM133.664 137.766V137.9C133.664 138.217 133.701 138.516 133.775 138.797C133.85 139.074 133.961 139.32 134.109 139.535C134.262 139.75 134.451 139.92 134.678 140.045C134.904 140.166 135.168 140.227 135.469 140.227C135.766 140.227 136.025 140.166 136.248 140.045C136.475 139.92 136.662 139.75 136.811 139.535C136.959 139.32 137.07 139.074 137.145 138.797C137.223 138.516 137.262 138.217 137.262 137.9V137.766C137.262 137.453 137.223 137.158 137.145 136.881C137.07 136.6 136.957 136.352 136.805 136.137C136.656 135.918 136.469 135.746 136.242 135.621C136.02 135.496 135.758 135.434 135.457 135.434C135.16 135.434 134.898 135.496 134.672 135.621C134.449 135.746 134.262 135.918 134.109 136.137C133.961 136.352 133.85 136.6 133.775 136.881C133.701 137.158 133.664 137.453 133.664 137.766ZM140.795 135.656V141H139.711V134.66H140.766L140.795 135.656ZM142.775 134.625L142.77 135.633C142.68 135.613 142.594 135.602 142.512 135.598C142.434 135.59 142.344 135.586 142.242 135.586C141.992 135.586 141.771 135.625 141.58 135.703C141.389 135.781 141.227 135.891 141.094 136.031C140.961 136.172 140.855 136.34 140.777 136.535C140.703 136.727 140.654 136.938 140.631 137.168L140.326 137.344C140.326 136.961 140.363 136.602 140.438 136.266C140.516 135.93 140.635 135.633 140.795 135.375C140.955 135.113 141.158 134.91 141.404 134.766C141.654 134.617 141.951 134.543 142.295 134.543C142.373 134.543 142.463 134.553 142.564 134.572C142.666 134.588 142.736 134.605 142.775 134.625ZM147.656 139.77V132H148.746V141H147.75L147.656 139.77ZM143.391 137.9V137.777C143.391 137.293 143.449 136.854 143.566 136.459C143.688 136.061 143.857 135.719 144.076 135.434C144.299 135.148 144.562 134.93 144.867 134.777C145.176 134.621 145.52 134.543 145.898 134.543C146.297 134.543 146.645 134.613 146.941 134.754C147.242 134.891 147.496 135.092 147.703 135.357C147.914 135.619 148.08 135.936 148.201 136.307C148.322 136.678 148.406 137.098 148.453 137.566V138.105C148.41 138.57 148.326 138.988 148.201 139.359C148.08 139.73 147.914 140.047 147.703 140.309C147.496 140.57 147.242 140.771 146.941 140.912C146.641 141.049 146.289 141.117 145.887 141.117C145.516 141.117 145.176 141.037 144.867 140.877C144.562 140.717 144.299 140.492 144.076 140.203C143.857 139.914 143.688 139.574 143.566 139.184C143.449 138.789 143.391 138.361 143.391 137.9ZM144.48 137.777V137.9C144.48 138.217 144.512 138.514 144.574 138.791C144.641 139.068 144.742 139.312 144.879 139.523C145.016 139.734 145.189 139.9 145.4 140.021C145.611 140.139 145.863 140.197 146.156 140.197C146.516 140.197 146.811 140.121 147.041 139.969C147.275 139.816 147.463 139.615 147.604 139.365C147.744 139.115 147.854 138.844 147.932 138.551V137.139C147.885 136.924 147.816 136.717 147.727 136.518C147.641 136.314 147.527 136.135 147.387 135.979C147.25 135.818 147.08 135.691 146.877 135.598C146.678 135.504 146.441 135.457 146.168 135.457C145.871 135.457 145.615 135.52 145.4 135.645C145.189 135.766 145.016 135.934 144.879 136.148C144.742 136.359 144.641 136.605 144.574 136.887C144.512 137.164 144.48 137.461 144.48 137.777ZM153.064 141.117C152.623 141.117 152.223 141.043 151.863 140.895C151.508 140.742 151.201 140.529 150.943 140.256C150.689 139.982 150.494 139.658 150.357 139.283C150.221 138.908 150.152 138.498 150.152 138.053V137.807C150.152 137.291 150.229 136.832 150.381 136.43C150.533 136.023 150.74 135.68 151.002 135.398C151.264 135.117 151.561 134.904 151.893 134.76C152.225 134.615 152.568 134.543 152.924 134.543C153.377 134.543 153.768 134.621 154.096 134.777C154.428 134.934 154.699 135.152 154.91 135.434C155.121 135.711 155.277 136.039 155.379 136.418C155.48 136.793 155.531 137.203 155.531 137.648V138.135H150.797V137.25H154.447V137.168C154.432 136.887 154.373 136.613 154.271 136.348C154.174 136.082 154.018 135.863 153.803 135.691C153.588 135.52 153.295 135.434 152.924 135.434C152.678 135.434 152.451 135.486 152.244 135.592C152.037 135.693 151.859 135.846 151.711 136.049C151.562 136.252 151.447 136.5 151.365 136.793C151.283 137.086 151.242 137.424 151.242 137.807V138.053C151.242 138.354 151.283 138.637 151.365 138.902C151.451 139.164 151.574 139.395 151.734 139.594C151.898 139.793 152.096 139.949 152.326 140.062C152.561 140.176 152.826 140.232 153.123 140.232C153.506 140.232 153.83 140.154 154.096 139.998C154.361 139.842 154.594 139.633 154.793 139.371L155.449 139.893C155.312 140.1 155.139 140.297 154.928 140.484C154.717 140.672 154.457 140.824 154.148 140.941C153.844 141.059 153.482 141.117 153.064 141.117ZM157.881 135.656V141H156.797V134.66H157.852L157.881 135.656ZM159.861 134.625L159.855 135.633C159.766 135.613 159.68 135.602 159.598 135.598C159.52 135.59 159.43 135.586 159.328 135.586C159.078 135.586 158.857 135.625 158.666 135.703C158.475 135.781 158.312 135.891 158.18 136.031C158.047 136.172 157.941 136.34 157.863 136.535C157.789 136.727 157.74 136.938 157.717 137.168L157.412 137.344C157.412 136.961 157.449 136.602 157.523 136.266C157.602 135.93 157.721 135.633 157.881 135.375C158.041 135.113 158.244 134.91 158.49 134.766C158.74 134.617 159.037 134.543 159.381 134.543C159.459 134.543 159.549 134.553 159.65 134.572C159.752 134.588 159.822 134.605 159.861 134.625Z" fill="#353945"/>
<defs>
<filter id="filter0_d_15_10603" x="0" y="0" width="222" height="52" filterUnits="userSpaceOnUse" color-interpolation-filters="sRGB">
<feFlood flood-opacity="0" result="BackgroundImageFix"/>
<feColorMatrix in="SourceAlpha" type="matrix" values="0 0 0 0 0 0 0 0 0 0 0 0 0 0 0 0 0 0 127 0" result="hardAlpha"/>
<feOffset dy="4"/>
<feGaussianBlur stdDeviation="4"/>
<feComposite in2="hardAlpha" operator="out"/>
<feColorMatrix type="matrix" values="0 0 0 0 0 0 0 0 0 0 0 0 0 0 0 0 0 0 0.12 0"/>
<feBlend mode="normal" in2="BackgroundImageFix" result="effect1_dropShadow_15_10603"/>
<feBlend mode="normal" in="SourceGraphic" in2="effect1_dropShadow_15_10603" result="shape"/>
</filter>
<filter id="filter1_d_15_10603" x="0" y="68" width="222" height="53" filterUnits="userSpaceOnUse" color-interpolation-filters="sRGB">
<feFlood flood-opacity="0" result="BackgroundImageFix"/>
<feColorMatrix in="SourceAlpha" type="matrix" values="0 0 0 0 0 0 0 0 0 0 0 0 0 0 0 0 0 0 127 0" result="hardAlpha"/>
<feOffset dy="4"/>
<feGaussianBlur stdDeviation="4"/>
<feComposite in2="hardAlpha" operator="out"/>
<feColorMatrix type="matrix" values="0 0 0 0 0 0 0 0 0 0 0 0 0 0 0 0 0 0 0.12 0"/>
<feBlend mode="normal" in2="BackgroundImageFix" result="effect1_dropShadow_15_10603"/>
<feBlend mode="normal" in="SourceGraphic" in2="effect1_dropShadow_15_10603" result="shape"/>
</filter>
</defs>
</svg>
